<svg width="80" height="80" viewBox="0 0 80 80" fill="none" xmlns="http://www.w3.org/2000/svg">
<g clip-path="url(#clip0)">
<path d="M40.002 70.0059C38.2801 70.0059 36.8793 71.4068 36.8793 73.1285C36.8793 74.8502 38.2802 76.2512 40.002 76.2512C41.7237 76.2512 43.1246 74.8502 43.1246 73.1285C43.1246 71.4068 41.7238 70.0059 40.002 70.0059ZM40.002 73.907C39.5727 73.907 39.2237 73.5579 39.2237 73.1287C39.2237 72.6995 39.5729 72.3504 40.002 72.3504C40.4312 72.3504 40.7802 72.6995 40.7802 73.1287C40.7801 73.5579 40.4312 73.907 40.002 73.907Z" fill="#008B75"/>
<path d="M68.8394 75.3236C68.8359 75.1828 68.8278 75.0397 68.8156 74.8989C68.7593 74.2541 68.1897 73.7781 67.5457 73.8331C66.9009 73.8894 66.4236 74.4578 66.48 75.103C66.6367 76.8947 65.8425 77.6555 64.0211 77.6555C61.8112 77.6555 60.285 77.6555 58.1215 77.6555V68.4581L64.9962 67.5545L65.4545 69.8564C65.5806 70.4912 66.1964 70.9034 66.8328 70.7777C67.4678 70.6513 67.8801 70.0342 67.754 69.3992C67.5215 68.2308 65.3401 57.2762 65.3336 57.2498C64.7937 54.6333 63.1292 52.6568 60.7792 51.6125H60.779C60.0734 51.297 59.9932 51.3401 59.3495 51.1297C47.0207 46.7745 47.6632 47.201 47.6632 46.6981V43.8251C47.6862 43.8103 48.2545 43.4892 48.9871 42.9448C50.3154 41.9595 51.1792 40.971 51.0681 41.0899C53.511 38.4249 54.8195 35.3541 55.1512 32.1923C58.7309 32.3582 61.2004 28.9391 59.7092 25.9629V16.4065C59.7092 9.4955 55.9506 7.09128 54.8023 6.51815C48.5474 -0.948113 36.7657 -1.87343 29.125 3.09221L29.1091 3.10252C28.1321 3.73799 28.5882 5.25752 29.7494 5.25752C30.5297 5.25752 33.233 2.55924 39.6837 2.34892C44.4651 2.2308 49.8503 4.13096 53.1582 8.20987C53.2898 8.37191 53.4501 8.49159 53.6456 8.56472C53.7974 8.62566 57.3643 10.1268 57.3643 16.4066V23.8052C56.711 23.5285 55.9951 23.3883 55.2409 23.4099V19.5755C55.2409 18.6029 54.5082 17.7988 53.5367 17.7052C51.5667 17.5151 50.4627 16.2315 49.8835 15.1883C49.1601 13.8854 47.4302 13.5679 46.2934 14.5397C41.0665 19.0079 35.0479 19.2351 30.9194 18.6393C27.8013 18.1888 24.9005 20.3129 24.3958 23.4115C23.6369 23.3787 22.8869 23.5129 22.1975 23.8051C22.2378 19.1654 21.621 14.1594 26.4718 8.44284C26.901 7.958 26.856 7.21737 26.3713 6.788C25.8866 6.35878 25.1457 6.40393 24.7166 6.88846C18.9357 13.6316 19.9616 20.3238 19.853 25.9629C19.5724 26.5229 19.4146 27.1459 19.4146 27.8026C19.4146 30.3165 21.7011 32.3182 24.4107 32.1926C24.7489 35.4234 26.1368 38.5246 28.5038 41.1007C28.504 41.1007 28.504 41.1009 28.504 41.1009C28.7719 41.3451 30.008 42.7937 32.3363 44.0778V46.6981C32.3363 46.907 32.2037 47.0929 32.0068 47.1604C31.991 47.1659 31.6046 47.2981 31.629 47.2896C22.5158 50.4153 30.8874 47.5428 20.6536 51.1297C20.386 51.2197 19.0532 51.4889 17.8108 52.4131C16.1814 53.5579 15.0819 55.2093 14.6567 57.3111C11.0933 75.4575 11.1347 74.3792 11.1645 75.6355C11.2252 78.2441 12.8753 80.0003 15.9832 80.0003C17.4263 80.0003 61.7275 80.0003 64.0212 80.0003C67.212 80 68.9072 78.1363 68.8394 75.3236ZM55.241 25.7551C56.5928 25.6833 57.8029 26.5943 57.8029 27.8023C57.8029 29.0221 56.5799 29.9204 55.241 29.8496V25.7551ZM24.3211 29.8496C24.2721 29.8523 24.2229 29.8535 24.1736 29.8535C22.8422 29.8537 21.7593 28.9334 21.7593 27.8024C21.7593 26.5826 22.9822 25.6843 24.3211 25.7551V29.8496ZM26.6655 30.5257C26.6655 28.6829 26.6655 27.156 26.6655 24.338C26.6655 22.2526 28.5197 20.6607 30.5847 20.9596C35.1926 21.6246 41.9226 21.3601 47.8168 16.3218L47.834 16.3263C48.9662 18.3654 50.7529 19.6526 52.8967 19.9863V24.8069C52.8934 30.3277 53.3642 33.5049 50.942 37.4184C50.7288 37.6893 49.2999 40.3145 45.9413 42.0948C42.8991 43.7104 39.8977 43.624 39.8604 43.6292C39.8446 43.6292 39.6871 43.6292 39.7027 43.6292C32.5915 43.6292 26.6655 37.8071 26.6655 30.5257ZM36.1535 52.8648C35.8799 52.4229 34.0465 49.4603 33.6763 48.8623C34.9791 47.7593 34.6182 46.4284 34.681 45.1215C37.5755 46.1289 40.5854 46.2834 43.7949 45.4579L43.7923 45.4484C43.7984 45.4467 43.804 45.4451 43.8107 45.4432L43.8135 45.4528C43.9248 45.4176 44.476 45.2849 45.3185 44.9607C45.4046 46.2264 44.9713 47.722 46.326 48.865C45.7362 49.8179 44.2491 52.2207 43.8502 52.865C41.4209 53.7673 38.5865 53.7687 36.1535 52.8648ZM42.0779 55.7286L40.0019 59.0828L37.926 55.7286C39.3043 55.9381 40.6988 55.9382 42.0779 55.7286ZM21.8827 77.6555H15.983C13.9763 77.6555 13.6166 76.7058 13.5275 75.8777C13.4413 75.0794 13.5349 74.9528 15.008 67.5544L21.8827 68.458V77.6555ZM34.8393 77.6553H24.2271V67.4297V64.7445C24.2271 64.097 23.7022 63.5723 23.0549 63.5723C22.4075 63.5723 21.8827 64.097 21.8827 64.7445V66.0933L15.4669 65.25C17.0419 57.3462 16.991 57.5254 17.1267 57.1095C17.9933 54.4314 19.8068 53.92 21.4072 53.3498L27.416 51.2207L29.1157 53.967C29.4565 54.5173 30.1788 54.6878 30.7294 54.3468C31.2799 54.0061 31.4499 53.2837 31.1093 52.7332L29.6865 50.4345L31.5062 49.8106C33.1151 52.4103 37.7557 59.9084 39.0054 61.9273C39.4621 62.6653 40.5402 62.6687 40.9988 61.9273L45.6384 54.4312C45.6385 54.4311 45.6387 54.4309 45.6388 54.4306C46.784 52.5801 47.3599 51.6497 48.4993 49.809L50.3215 50.4289L40.7996 65.8134C40.4337 66.4051 39.5719 66.4064 39.2049 65.8134L34.0083 57.4172C33.6677 56.8668 32.9451 56.6965 32.3946 57.0373C31.8441 57.3781 31.6741 58.1004 32.0147 58.6509L33.5269 61.0942H31.356C30.7086 61.0942 30.1838 61.6189 30.1838 62.2664C30.1838 62.9139 30.7086 63.4386 31.356 63.4386H34.978L37.1171 66.8948C34.766 67.9873 33.1312 70.3702 33.1312 73.1286C33.1308 74.8616 33.7769 76.4453 34.8393 77.6553ZM40.0019 77.6555C37.5058 77.6555 35.4752 75.6247 35.4752 73.1288C35.4752 70.6327 37.5058 68.602 40.0019 68.602C42.498 68.602 44.5287 70.6327 44.5287 73.1288C44.5287 75.6249 42.498 77.6555 40.0019 77.6555ZM56.9493 63.5725C56.3018 63.5725 55.7771 64.0972 55.7771 64.7447C55.7771 67.1237 55.7771 74.2208 55.7771 77.6556H45.1651C46.2273 76.4456 46.8734 74.8617 46.8734 73.1289C46.8734 70.3702 45.2384 67.9876 42.8873 66.8951L52.5849 51.2264C59.7121 53.7442 58.311 53.2667 59.4959 53.6171C60.49 53.9961 60.9903 54.4506 61.0854 54.5086L61.0853 54.5089C61.3796 54.7765 61.904 55.1367 62.4268 56.062C63.1678 57.4075 63.0278 58.0445 64.5373 65.2503L58.1215 66.0936V64.7448C58.1215 64.0972 57.5968 63.5725 56.9493 63.5725Z" fill="#008B75"/>
</g>
<defs>
<clipPath id="clip0">
<rect width="80" height="80" fill="white"/>
</clipPath>
</defs>
</svg>
