<svg width="80" height="80" viewBox="0 0 80 80" fill="none" xmlns="http://www.w3.org/2000/svg">
<path d="M26.25 33.75C27.6307 33.75 28.75 32.6307 28.75 31.25C28.75 29.8693 27.6307 28.75 26.25 28.75C24.8693 28.75 23.75 29.8693 23.75 31.25C23.75 32.6307 24.8693 33.75 26.25 33.75Z" fill="#008B75"/>
<path d="M41.25 33.75C42.6307 33.75 43.75 32.6307 43.75 31.25C43.75 29.8693 42.6307 28.75 41.25 28.75C39.8693 28.75 38.75 29.8693 38.75 31.25C38.75 32.6307 39.8693 33.75 41.25 33.75Z" fill="#008B75"/>
<path d="M40 40H27.5C27.1685 40 26.8505 40.1317 26.6161 40.3661C26.3817 40.6005 26.25 40.9185 26.25 41.25C26.25 44.6962 29.6145 47.5 33.75 47.5C37.8855 47.5 41.25 44.6962 41.25 41.25C41.25 40.9185 41.1183 40.6005 40.8839 40.3661C40.6495 40.1317 40.3315 40 40 40ZM33.75 45C31.577 45 29.7234 43.955 29.0356 42.5H38.4644C37.7766 43.955 35.923 45 33.75 45Z" fill="#008B75"/>
<path d="M63.75 48.7501C61.1465 48.7514 58.5881 49.4302 56.3264 50.7197C54.0646 52.0092 52.1773 53.865 50.85 56.1048L43.75 54.0595V49.7423C47.2562 47.0345 50.1828 43.1564 51.0125 38.7501H51.875C53.0349 38.7488 54.147 38.2875 54.9672 37.4673C55.7874 36.6471 56.2487 35.535 56.25 34.3751V30.6251C56.2487 29.4652 55.7874 28.3531 54.9672 27.5329C54.147 26.7127 53.0349 26.2514 51.875 26.2501H51.25V25.0001C51.25 24.9626 51.2469 24.9235 51.2437 24.886C51.2469 24.8501 51.25 24.811 51.25 24.7735V18.9064C51.25 18.8642 51.2484 18.822 51.2484 18.7782C51.2484 18.7454 51.2484 18.7126 51.2469 18.6798C51.1852 14.06 49.299 9.65206 45.9997 6.41763C42.7005 3.1832 38.2561 1.38476 33.6359 1.41467C29.0158 1.44458 24.595 3.30041 21.3379 6.57728C18.0809 9.85416 16.2519 14.2861 16.25 18.9064V26.2501H15.625C14.4651 26.2514 13.353 26.7127 12.5328 27.5329C11.7126 28.3531 11.2513 29.4652 11.25 30.6251V34.3751C11.2513 35.535 11.7126 36.6471 12.5328 37.4673C13.353 38.2875 14.4651 38.7488 15.625 38.7501H16.4875C17.3172 43.1564 20.2437 47.0345 23.75 49.7423V54.0595L11.4859 57.5939C8.55255 58.3701 5.95817 60.0946 4.10682 62.4987C2.25547 64.9028 1.25106 67.8517 1.25 70.886V77.5001C1.25 77.8316 1.3817 78.1496 1.61612 78.384C1.85054 78.6184 2.16848 78.7501 2.5 78.7501H65C65.1698 78.7504 65.3379 78.7158 65.4938 78.6485C69.2951 78.2039 72.7827 76.3231 75.2426 73.391C77.7025 70.459 78.9486 66.6975 78.7257 62.8768C78.5029 59.056 76.828 55.4649 74.0439 52.8387C71.2599 50.2125 67.5773 48.7498 63.75 48.7501ZM51.25 28.7501H51.875C52.3722 28.7505 52.8488 28.9482 53.2004 29.2997C53.5519 29.6513 53.7496 30.128 53.75 30.6251V34.3751C53.7496 34.8723 53.5519 35.3489 53.2004 35.7005C52.8488 36.052 52.3722 36.2497 51.875 36.2501H51.25V28.7501ZM16.25 36.2501H15.625C15.1278 36.2497 14.6512 36.052 14.2996 35.7005C13.9481 35.3489 13.7504 34.8723 13.75 34.3751V30.6251C13.7504 30.128 13.9481 29.6513 14.2996 29.2997C14.6512 28.9482 15.1278 28.7505 15.625 28.7501H16.25V36.2501ZM45.95 57.2954L40.7953 67.0938L35.7437 64.6189L42.9172 56.422L45.95 57.2954ZM33.75 63.1017L26.25 54.5298V51.422C28.8094 52.9032 31.4781 53.7501 33.75 53.7501C36.0219 53.7501 38.6906 52.9032 41.25 51.422V54.5298L33.75 63.1017ZM18.75 18.9064C18.7496 15.003 20.2708 11.2531 22.9906 8.45326C25.7104 5.65338 29.4145 4.02398 33.3162 3.9111C37.218 3.79822 41.0101 5.21076 43.8872 7.84872C46.7643 10.4867 48.4997 14.1423 48.725 18.0392C36.5766 24.8548 22.7781 25.1282 18.75 25.0454V18.9064ZM18.75 36.2501V27.5517C19.075 27.5579 19.4531 27.5642 19.8844 27.5642C22.6913 27.5556 25.495 27.3746 28.2797 27.022C33.6406 26.3517 41.3641 24.736 48.75 20.8673V24.7735C48.75 24.811 48.7531 24.8501 48.7563 24.886C48.7531 24.9235 48.75 24.9626 48.75 25.0001V36.2501C48.75 38.3985 48.0531 42.6251 43.3844 46.8095C40.375 49.5079 36.5922 51.2501 33.75 51.2501C30.9078 51.2501 27.125 49.5079 24.1156 46.8095C19.4469 42.6251 18.75 38.3985 18.75 36.2501ZM24.5828 56.422L31.7438 64.6064L26.7859 67.0845L21.625 57.2735L24.5828 56.422ZM29.0984 76.2501H12.5V72.5001C12.5 72.1686 12.3683 71.8506 12.1339 71.6162C11.8995 71.3818 11.5815 71.2501 11.25 71.2501C10.9185 71.2501 10.6005 71.3818 10.3661 71.6162C10.1317 71.8506 10 72.1686 10 72.5001V76.2501H3.75V70.886C3.75106 68.4015 4.57423 65.9871 6.09114 64.0194C7.60806 62.0517 9.73346 60.6412 12.1359 60.0079C12.1456 60.0046 12.1556 60.002 12.1656 60.0001L19.1719 57.9813L25.1437 69.3329C25.2965 69.6219 25.5563 69.8398 25.8675 69.9399C26.1787 70.04 26.5167 70.0145 26.8094 69.8689L27.6906 69.4267L29.9 73.8454L29.0984 76.2501ZM31.7344 76.2501L32.1516 75.0001H35.3844L35.8531 76.2501H31.7344ZM35.4781 72.5001H32.0219L29.9266 68.3095L33.7203 66.4126L37.5766 68.3017L35.4781 72.5001ZM38.5219 76.2501L37.6125 73.822L39.8219 69.4001L40.7859 69.872C40.9564 69.9565 41.1441 70.0003 41.3344 70.0001C41.5623 70.0002 41.7859 69.9382 41.9811 69.8206C42.1763 69.703 42.3357 69.5344 42.4422 69.3329L48.4031 58.0017L49.7422 58.3876C48.5219 61.5723 48.4243 65.0779 49.4655 68.3255C50.5067 71.5731 52.6243 74.3685 55.4688 76.2501H38.5219ZM63.75 76.2501C61.2777 76.2501 58.861 75.517 56.8054 74.1435C54.7498 72.77 53.1476 70.8177 52.2015 68.5336C51.2554 66.2496 51.0079 63.7362 51.4902 61.3115C51.9725 58.8867 53.163 56.6594 54.9112 54.9113C56.6593 53.1631 58.8866 51.9726 61.3114 51.4903C63.7361 51.008 66.2495 51.2555 68.5335 52.2016C70.8176 53.1477 72.7699 54.7499 74.1434 56.8055C75.5169 58.8611 76.25 61.2778 76.25 63.7501C76.2462 67.0641 74.928 70.2413 72.5846 72.5847C70.2412 74.9281 67.064 76.2463 63.75 76.2501Z" fill="#008B75"/>
<path d="M63.75 52.5C61.525 52.5 59.3499 53.1598 57.4998 54.396C55.6498 55.6321 54.2078 57.3891 53.3564 59.4448C52.5049 61.5005 52.2821 63.7625 52.7162 65.9448C53.1503 68.1271 54.2217 70.1316 55.7951 71.705C57.3684 73.2783 59.373 74.3498 61.5552 74.7838C63.7375 75.2179 65.9995 74.9951 68.0552 74.1436C70.1109 73.2922 71.8679 71.8502 73.104 70.0002C74.3402 68.1501 75 65.975 75 63.75C74.9967 60.7673 73.8103 57.9078 71.7013 55.7988C69.5922 53.6897 66.7327 52.5033 63.75 52.5ZM63.75 72.5C62.0194 72.5 60.3277 71.9868 58.8888 71.0254C57.4498 70.0639 56.3283 68.6973 55.6661 67.0985C55.0038 65.4996 54.8305 63.7403 55.1681 62.043C55.5058 60.3456 56.3391 58.7865 57.5628 57.5628C58.7865 56.3391 60.3456 55.5057 62.043 55.1681C63.7403 54.8305 65.4996 55.0038 67.0985 55.6661C68.6973 56.3283 70.0639 57.4498 71.0254 58.8888C71.9868 60.3277 72.5 62.0194 72.5 63.75C72.4974 66.0698 71.5746 68.2939 69.9343 69.9343C68.2939 71.5746 66.0698 72.4974 63.75 72.5Z" fill="#008B75"/>
<path d="M66.25 61.25C66.5815 61.25 66.8995 61.1183 67.1339 60.8839C67.3683 60.6495 67.5 60.3315 67.5 60C67.5 59.6685 67.3683 59.3505 67.1339 59.1161C66.8995 58.8817 66.5815 58.75 66.25 58.75H65C65 58.4185 64.8683 58.1005 64.6339 57.8661C64.3995 57.6317 64.0815 57.5 63.75 57.5C63.4185 57.5 63.1005 57.6317 62.8661 57.8661C62.6317 58.1005 62.5 58.4185 62.5 58.75H61.25C60.9185 58.75 60.6005 58.8817 60.3661 59.1161C60.1317 59.3505 60 59.6685 60 60V63.75C60 64.0815 60.1317 64.3995 60.3661 64.6339C60.6005 64.8683 60.9185 65 61.25 65H65V66.25H61.25C60.9185 66.25 60.6005 66.3817 60.3661 66.6161C60.1317 66.8505 60 67.1685 60 67.5C60 67.8315 60.1317 68.1495 60.3661 68.3839C60.6005 68.6183 60.9185 68.75 61.25 68.75H62.5C62.5 69.0815 62.6317 69.3995 62.8661 69.6339C63.1005 69.8683 63.4185 70 63.75 70C64.0815 70 64.3995 69.8683 64.6339 69.6339C64.8683 69.3995 65 69.0815 65 68.75H66.25C66.5815 68.75 66.8995 68.6183 67.1339 68.3839C67.3683 68.1495 67.5 67.8315 67.5 67.5V63.75C67.5 63.4185 67.3683 63.1005 67.1339 62.8661C66.8995 62.6317 66.5815 62.5 66.25 62.5H62.5V61.25H66.25Z" fill="#008B75"/>
</svg>
