<svg width="74" height="80" viewBox="0 0 74 80" fill="none" xmlns="http://www.w3.org/2000/svg">
<path d="M37 15.7049C37.6699 15.7049 38.2131 15.1617 38.2131 14.4918V7.21312C38.2131 6.54317 37.6699 6 37 6C36.33 6 35.7869 6.54317 35.7869 7.21312V14.4918C35.7869 15.1617 36.33 15.7049 37 15.7049Z" fill="#255851"/>
<path d="M18.9658 12.3653L22.6051 18.6735C22.9363 19.2559 23.6769 19.4596 24.2594 19.1284C24.8418 18.7972 25.0455 18.0566 24.7143 17.4742C24.7117 17.4695 24.709 17.4649 24.7062 17.4602L21.0669 11.152C20.7357 10.5696 19.9951 10.3659 19.4127 10.6971C18.8302 11.0283 18.6266 11.7689 18.9577 12.3513C18.9605 12.356 18.963 12.3607 18.9658 12.3653Z" fill="#255851"/>
<path d="M6.97659 25.2473L13.2848 28.8867C13.8672 29.2178 14.6078 29.0142 14.939 28.4317C15.267 27.8548 15.0705 27.1213 14.4979 26.7856L8.1897 23.1462C7.60725 22.815 6.86665 23.0187 6.53547 23.6011C6.20747 24.1781 6.404 24.9116 6.97659 25.2473Z" fill="#255851"/>
<path d="M11.5246 41.1803C11.5246 40.5103 10.9814 39.9672 10.3114 39.9672H3.03276C2.36281 39.9672 1.81964 40.5103 1.81964 41.1803C1.81964 41.8502 2.36281 42.3934 3.03276 42.3934H10.3114C10.9814 42.3934 11.5246 41.8502 11.5246 41.1803Z" fill="#255851"/>
<path d="M13.294 53.4659C13.2893 53.4686 13.2846 53.4713 13.2799 53.4741L6.97171 57.1134C6.38926 57.4445 6.18546 58.1851 6.51649 58.7675C6.84752 59.35 7.58812 59.5538 8.17057 59.2227C8.17527 59.22 8.17997 59.2173 8.18467 59.2145L14.4929 55.5752C15.0753 55.2442 15.2791 54.5036 14.9481 53.9211C14.6171 53.3387 13.8765 53.1349 13.294 53.4659Z" fill="#255851"/>
<path d="M67.0234 57.1133L60.7152 53.474C60.1373 53.1351 59.3939 53.3289 59.055 53.9068C58.7161 54.4847 58.9099 55.228 59.4878 55.5669C59.4925 55.5696 59.4972 55.5724 59.5019 55.5751L65.8101 59.2144C66.3926 59.5455 67.1332 59.3417 67.4642 58.7592C67.7923 58.1824 67.5958 57.4491 67.0234 57.1133Z" fill="#255851"/>
<path d="M70.9672 39.9672H63.6885C63.0186 39.9672 62.4754 40.5103 62.4754 41.1803C62.4754 41.8502 63.0186 42.3934 63.6885 42.3934H70.9672C71.6372 42.3934 72.1803 41.8502 72.1803 41.1803C72.1803 40.5103 71.6372 39.9672 70.9672 39.9672Z" fill="#255851"/>
<path d="M60.1146 29.0491C60.3277 29.0496 60.537 28.9935 60.7212 28.8866L67.0294 25.2472C67.6074 24.9085 67.8012 24.1651 67.4625 23.5872C67.1267 23.0147 66.3933 22.8181 65.8163 23.1461L59.5081 26.7855C58.9279 27.1204 58.7291 27.8624 59.0641 28.4426C59.2808 28.8179 59.6813 29.0491 60.1146 29.0491Z" fill="#255851"/>
<path d="M49.7377 19.1174C50.3179 19.4524 51.0598 19.2536 51.3948 18.6734L55.0342 12.3652C55.3731 11.7873 55.1793 11.044 54.6014 10.7051C54.0235 10.3661 53.2801 10.5599 52.9412 11.1378C52.9385 11.1425 52.9358 11.1472 52.933 11.1519L49.2937 17.4601C48.9587 18.0405 49.1575 18.7824 49.7377 19.1174Z" fill="#255851"/>
<path d="M56.9638 29.6542C52.8475 22.5206 45.2359 18.1273 36.9999 18.1311C24.2769 18.1252 13.9582 28.4345 13.9523 41.1575C13.9485 49.3935 18.3418 57.0051 25.4753 61.1215C26.0654 61.439 26.801 61.2181 27.1185 60.628C27.4225 60.063 27.2341 59.3591 26.6885 59.0216C16.8246 53.3268 13.445 40.7138 19.14 30.8502C24.8348 20.9863 37.4476 17.6067 47.3114 23.3016C57.1752 28.9964 60.5548 41.6093 54.8599 51.473C53.0497 54.6081 50.4464 57.2114 47.3114 59.0214C46.7417 59.374 46.5655 60.1216 46.9181 60.6913C47.2556 61.2369 47.9597 61.4254 48.5245 61.1213C59.5444 54.7625 63.3228 40.6741 56.9638 29.6542Z" fill="#255851"/>
<path d="M45.4918 77.5737H28.5082C27.8382 77.5737 27.295 78.1169 27.295 78.7868C27.295 79.4568 27.8382 80 28.5082 80H45.4918C46.1617 80 46.7049 79.4568 46.7049 78.7868C46.7049 78.1169 46.1617 77.5737 45.4918 77.5737Z" fill="#255851"/>
<path d="M46.7049 63.0164H27.295C26.6251 63.0164 26.0819 63.5595 26.0819 64.2295C26.0819 64.8994 26.6251 65.4426 27.295 65.4426H46.7049C47.3748 65.4426 47.918 64.8994 47.918 64.2295C47.918 63.5595 47.3748 63.0164 46.7049 63.0164Z" fill="#255851"/>
<path d="M28.5082 59.3771C28.5082 60.047 29.0514 60.5902 29.7213 60.5902H44.2787C44.9486 60.5902 45.4918 60.047 45.4918 59.3771C45.4918 58.7071 44.9486 58.1639 44.2787 58.1639H29.7213C29.0514 58.1639 28.5082 58.7071 28.5082 59.3771Z" fill="#255851"/>
<path d="M46.7049 66.6558H27.295C26.6251 66.6558 26.0819 67.1989 26.0819 67.8689C26.0819 68.5388 26.6251 69.082 27.295 69.082H46.7049C47.3748 69.082 47.918 68.5388 47.918 67.8689C47.918 67.1989 47.3748 66.6558 46.7049 66.6558Z" fill="#255851"/>
<path d="M46.7049 70.295H27.295C26.6251 70.295 26.0819 70.8382 26.0819 71.5082C26.0819 72.1781 26.6251 72.7213 27.295 72.7213H46.7049C47.3748 72.7213 47.918 72.1781 47.918 71.5082C47.918 70.8382 47.3748 70.295 46.7049 70.295Z" fill="#255851"/>
<path d="M46.7049 73.9344H27.295C26.6251 73.9344 26.0819 74.4776 26.0819 75.1476C26.0819 75.8175 26.6251 76.3607 27.295 76.3607H46.7049C47.3748 76.3607 47.918 75.8175 47.918 75.1476C47.918 74.4776 47.3748 73.9344 46.7049 73.9344Z" fill="#255851"/>
<path d="M37 22.9836C26.9549 22.995 18.8146 31.1353 18.8032 41.1804C18.8032 41.8503 19.3464 42.3935 20.0163 42.3935C20.6863 42.3935 21.2295 41.8503 21.2295 41.1804C21.2395 32.4747 28.2943 25.4199 37 25.4099C37.6699 25.4099 38.2131 24.8667 38.2131 24.1968C38.2131 23.5268 37.6699 22.9836 37 22.9836Z" fill="#255851"/>
</svg>
