<svg width="80" height="72" viewBox="0 0 80 72" fill="none" xmlns="http://www.w3.org/2000/svg">
<path d="M9.37332 38.9907L13.3733 54.9907C13.5219 55.5839 14.0551 56 14.6667 56C14.7759 56.0004 14.8848 55.987 14.9907 55.96C15.3339 55.8744 15.6291 55.6558 15.8111 55.3525C15.9932 55.0491 16.0472 54.6859 15.9613 54.3427L11.9613 38.3427C11.7782 37.6333 11.057 37.2045 10.3463 37.3826C9.63559 37.5606 9.2017 38.2787 9.37466 38.9907H9.37332Z" fill="#008B75"/>
<path d="M79.192 11.8919C79.682 11.6816 79.9997 11.1997 79.9997 10.6665C79.9997 10.1333 79.682 9.65141 79.192 9.44119L69.8587 5.44119C69.4467 5.26461 68.9736 5.30679 68.5995 5.55348C68.2253 5.80016 68.0001 6.21834 68 6.66652V17.7332C64.0481 16.7801 60.0402 16.0765 56 15.6265V11.5452L64.5253 7.89186C65.0153 7.68164 65.333 7.19972 65.333 6.66652C65.333 6.13333 65.0153 5.65141 64.5253 5.44119L55.192 1.44119C54.7801 1.26461 54.307 1.30679 53.9328 1.55348C53.5586 1.80016 53.3334 2.21834 53.3333 2.66652V15.3332C49.224 14.9332 45.1013 14.7119 41.3333 14.6665V10.2119L49.8587 6.55852C50.3487 6.34831 50.6663 5.86638 50.6663 5.33319C50.6663 4.8 50.3487 4.31807 49.8587 4.10786L40.5253 0.107857C40.1134 -0.0687276 39.6403 -0.0265411 39.2661 0.220144C38.8919 0.466829 38.6667 0.885005 38.6667 1.33319V14.6745C34.8987 14.7172 30.776 14.9412 26.6667 15.3412V11.5452L35.192 7.89186C35.682 7.68164 35.9997 7.19972 35.9997 6.66652C35.9997 6.13333 35.682 5.65141 35.192 5.44119L25.8587 1.44119C25.4467 1.26461 24.9736 1.30679 24.5995 1.55348C24.2253 1.80016 24 2.21834 24 2.66652V15.6265C19.9598 16.0765 15.9519 16.7801 12 17.7332V15.5452L20.5253 11.8919C21.0153 11.6816 21.333 11.1997 21.333 10.6665C21.333 10.1333 21.0153 9.65141 20.5253 9.44119L11.192 5.44119C10.7801 5.26461 10.307 5.30679 9.93279 5.55348C9.5586 5.80016 9.33338 6.21834 9.33333 6.66652V18.4705C3.77733 20.1652 0 22.4412 0 25.3332C0.00545561 25.6391 0.0530134 25.9429 0.141333 26.2359L0.150667 26.3079C0.157277 26.3849 0.170662 26.4612 0.190667 26.5359L7.74 55.5412C2.55867 57.0999 0 58.9972 0 61.3332C0 67.7145 20.6827 71.9999 40 71.9999C59.3173 71.9999 80 67.7145 80 61.3332C80 58.9972 77.4413 57.0999 72.2667 55.5412L79.8093 26.5332C79.8267 26.4644 79.8392 26.3944 79.8467 26.3239L79.8587 26.2332C79.9467 25.9411 79.9943 25.6382 80 25.3332C80 22.4412 76.2227 20.1652 70.6667 18.4705V15.5452L79.192 11.8919ZM70.6667 8.68919L75.2813 10.6665L70.6667 12.6439V8.68919ZM56 4.68919L60.6147 6.66652L56 8.64386V4.68919ZM41.3333 3.35586L45.948 5.33319L41.3333 7.31052V3.35586ZM26.6667 4.68919L31.2813 6.66652L26.6667 8.64386V4.68919ZM12 8.68919L16.6147 10.6665L12 12.6439V8.68919ZM14.1333 27.3945L18.3253 30.0199C17.2691 30.2574 16.2292 30.5625 15.212 30.9332C13.2032 30.5129 11.2167 29.9923 9.26 29.3732C10.8142 28.5523 12.4468 27.8894 14.1333 27.3945ZM23.848 25.2359L26.3813 28.7185C24.8973 28.8812 23.484 29.0679 22.1707 29.2772L17.6373 26.4372C19.536 25.9799 21.6333 25.5785 23.844 25.2359H23.848ZM62.3813 26.4359L57.848 29.2759C56.5347 29.0665 55.1213 28.8759 53.6373 28.7172L56.1707 25.2345C58.3667 25.5785 60.464 25.9799 62.376 26.4372L62.3813 26.4359ZM70.7493 29.3692C68.7926 29.9883 66.8061 30.5089 64.7973 30.9292C63.7802 30.5585 62.7402 30.2534 61.684 30.0159L65.8667 27.3945C67.5546 27.8892 69.1885 28.5521 70.744 29.3732L70.7493 29.3692ZM40 30.6665C46.1544 30.6385 52.3011 31.1075 58.38 32.0692C52.2909 32.9239 46.1488 33.3463 40 33.3332C33.8512 33.3463 27.7091 32.9239 21.62 32.0692C27.6989 31.1075 33.8456 30.6385 40 30.6665ZM50.544 28.4265C48.8333 28.2865 47.0587 28.1785 45.248 28.1079L45.9453 24.1732C48.408 24.3065 50.8373 24.5252 53.1667 24.8145L50.544 28.4265ZM42.5533 28.0265C41.7053 28.0119 40.8533 27.9999 40 27.9999C39.1467 27.9999 38.2947 28.0119 37.4467 28.0279L36.7413 24.0572C37.8267 24.0225 38.9133 23.9999 40 23.9999C41.0867 23.9999 42.1733 24.0225 43.2587 24.0572L42.5533 28.0265ZM34.0547 24.1732L34.752 28.1079C32.9413 28.1785 31.1667 28.2865 29.456 28.4265L26.8333 24.8145C29.1627 24.5252 31.592 24.3119 34.0547 24.1732ZM40 35.9999C52.176 35.9999 68.7533 34.0665 76.1547 29.9905L69.3547 56.1012C69.3205 56.22 69.303 56.3429 69.3027 56.4665C69.3028 56.5411 69.3091 56.6156 69.3213 56.6892C68.9787 57.9519 63.568 60.2639 54.6627 61.6119V57.3332C54.6553 50.7088 49.287 45.3405 42.6627 45.3332H38.6667C32.0423 45.3405 26.674 50.7088 26.6667 57.3332V61.7972C16.964 60.4839 11.02 57.9999 10.6747 56.6759C10.687 56.6023 10.6932 56.5278 10.6933 56.4532C10.6934 56.3071 10.6691 56.162 10.6213 56.0239L3.84533 29.9905C11.2467 34.0665 27.824 35.9999 40 35.9999ZM46.6667 62.4545C44.5573 62.5879 42.3373 62.6665 40 62.6665C38.1467 62.6665 36.3773 62.6119 34.6667 62.5252V57.3332C34.6667 55.1241 36.4575 53.3332 38.6667 53.3332H42.6667C44.8758 53.3332 46.6667 55.1241 46.6667 57.3332V62.4545ZM42.6667 50.6665H38.6667C34.9866 50.6709 32.0044 53.6531 32 57.3332V62.3559C31.0871 62.2865 30.1982 62.2065 29.3333 62.1159V57.3332C29.3392 52.181 33.5144 48.0057 38.6667 47.9999H42.6667C47.8189 48.0057 51.9941 52.181 52 57.3332V61.9745C51.1387 62.0772 50.248 62.1692 49.3333 62.2519V57.3332C49.3289 53.6531 46.3467 50.6709 42.6667 50.6665ZM77.3333 61.3332C77.3333 63.7772 63.2293 69.3332 40 69.3332C16.7707 69.3332 2.66667 63.7772 2.66667 61.3332C2.66667 60.7919 3.91867 59.4665 8.44 58.1039C11.152 62.4839 26.0213 65.3332 40 65.3332C53.9787 65.3332 68.848 62.4839 71.56 58.1039C76.0813 59.4665 77.3333 60.7919 77.3333 61.3332ZM77.308 25.1745L77.2307 25.7572C76.904 26.5332 75.716 27.3892 73.7907 28.2372C71.4553 26.5851 68.8369 25.3749 66.0653 24.6665C66.0253 24.6545 65.9893 24.6399 65.9507 24.6319C62.6506 23.6875 59.2887 22.9746 55.8893 22.4985C55.856 22.4892 55.824 22.4892 55.792 22.4825C50.5615 21.7288 45.2845 21.3448 40 21.3332C34.715 21.345 29.4374 21.73 24.2067 22.4852C24.1747 22.4852 24.1427 22.4852 24.112 22.4999C20.7108 22.9751 17.347 23.6879 14.0453 24.6332C14.0105 24.6414 13.9763 24.6516 13.9427 24.6639C11.1683 25.3726 8.54721 26.5837 6.20933 28.2372C4.284 27.3892 3.096 26.5332 2.76933 25.7572L2.692 25.1745C3.08 22.8185 12.04 19.5999 25.3053 18.1332H25.3333C25.3653 18.1332 25.392 18.1172 25.424 18.1145C35.1134 17.0728 44.8866 17.0728 54.576 18.1145C54.608 18.1145 54.6347 18.1332 54.6667 18.1332H54.6947C67.96 19.5999 76.92 22.8185 77.308 25.1745Z" fill="#008B75"/>
</svg>
