<svg width="80" height="81" viewBox="0 0 80 81" fill="none" xmlns="http://www.w3.org/2000/svg">
<path d="M74.6675 13.3325H27.3342L24.2675 3.18717C23.5416 0.824173 21.0489 -0.514303 18.6782 0.185836L11.8875 2.18584C11.1394 2.40711 10.4611 2.81768 9.91817 3.37784L2.26751 11.3018C1.69223 11.903 1.29525 12.6522 1.12084 13.4658C0.34084 17.0658 -1.81249 30.1165 3.29417 46.9992C8.40084 63.8818 17.4275 73.6338 20.0808 76.2192C20.6754 76.8028 21.4197 77.2107 22.2315 77.3978L33.0222 79.8872C33.3558 79.9643 33.6971 80.0032 34.0395 80.0032C34.4746 80.0028 34.9074 79.9404 35.3248 79.8178L39.0822 78.7098L42.1102 77.8165C43.2629 77.4843 44.233 76.7013 44.8008 75.6445C45.3666 74.6056 45.4911 73.3828 45.1462 72.2512L43.4568 66.6658H74.6675C77.613 66.6658 80.0008 64.278 80.0008 61.3325V18.6658C80.0008 15.7203 77.613 13.3325 74.6675 13.3325ZM53.6675 39.5992L77.1702 17.7778C77.2759 18.0621 77.3314 18.3626 77.3342 18.6658V61.3325C77.3303 61.6182 77.2804 61.9014 77.1862 62.1712L53.6675 39.5992ZM74.6675 15.9992C74.8187 16.0014 74.9695 16.0166 75.1182 16.0445L47.2008 41.9565C46.178 42.9051 44.597 42.9051 43.5742 41.9565L24.3742 24.1818L25.7888 23.7645C26.9394 23.43 27.9074 22.6475 28.4755 21.5925C29.0406 20.5542 29.1641 19.3322 28.8182 18.2018L28.1475 15.9992H74.6675ZM20.9795 54.9738C18.2268 51.6039 16.18 47.7148 14.9608 43.5378C13.2388 38.2746 13.0039 32.6381 14.2822 27.2498C14.3097 27.1772 14.3709 27.1224 14.4462 27.1032L21.3888 25.0565L37.0475 39.5472L20.9795 54.9738ZM42.4462 74.3752C42.215 74.8037 41.8208 75.1209 41.3528 75.2552L39.5848 75.7765L36.3382 65.0325C36.2071 64.5684 35.8357 64.2113 35.3668 64.0986C34.8979 63.9858 34.4047 64.135 34.077 64.4887C33.7493 64.8425 33.6381 65.3456 33.7862 65.8045L37.0342 76.5325L34.5728 77.2578C34.2634 77.3498 33.9354 77.3599 33.6208 77.2872L22.8302 74.7992C22.4958 74.721 22.1894 74.5522 21.9448 74.3112C19.4115 71.8378 10.7622 62.5005 5.84617 46.2285C0.930173 29.9565 2.98084 17.4658 3.72617 14.0285C3.79786 13.6986 3.95937 13.395 4.19284 13.1512L11.8355 5.23117C12.056 5.00266 12.3314 4.83462 12.6355 4.74317L15.1168 4.0125L18.3635 14.7552C18.5334 15.3179 19.0517 15.703 19.6395 15.7032C19.7701 15.7038 19.9001 15.6845 20.0248 15.6458C20.7294 15.4328 21.1281 14.6892 20.9155 13.9845L17.6795 3.25917L19.4315 2.74317C20.3993 2.45144 21.4215 2.99319 21.7235 3.95784L26.2568 18.9712C26.396 19.4214 26.348 19.9088 26.1235 20.3232C25.8916 20.7514 25.4978 21.0688 25.0302 21.2045L23.2608 21.7258L22.7368 19.9925C22.5104 19.3055 21.7775 18.9244 21.0851 19.1335C20.3926 19.3426 19.9932 20.0657 20.1848 20.7632L20.7035 22.4805L13.6928 24.5472C12.7317 24.828 11.9826 25.5836 11.7102 26.5472C10.3037 32.4173 10.546 38.5619 12.4102 44.3032C14.0474 50.1305 17.2516 55.3971 21.6742 59.5298C22.4262 60.193 23.4677 60.42 24.4275 60.1298L31.4555 58.0578L31.9795 59.7912C32.1106 60.2552 32.482 60.6124 32.9509 60.7251C33.4197 60.8379 33.9129 60.6887 34.2407 60.3349C34.5684 59.9812 34.6796 59.4781 34.5315 59.0192L34.0128 57.3018L35.7635 56.7858C36.7314 56.4964 37.7525 57.0372 38.0568 58.0005L42.5902 73.0152C42.7304 73.4684 42.6809 73.9591 42.4528 74.3752H42.4462ZM42.6502 63.9992L40.6075 57.2378C39.8804 54.8704 37.3815 53.5311 35.0075 54.2365L23.6742 57.5778C23.5928 57.6022 23.5046 57.5864 23.4368 57.5352C23.2502 57.3712 23.0368 57.1672 22.7902 56.9352L39.0088 41.3618L41.7608 43.9098C43.8104 45.7996 46.9673 45.7996 49.0168 43.9098L51.7102 41.4085L75.1862 63.9418C75.0156 63.978 74.8419 63.9972 74.6675 63.9992H42.6502Z" fill="#255851"/>
<path d="M34.6675 21.3324H56.0009C56.7372 21.3324 57.3342 20.7355 57.3342 19.9991C57.3342 19.2627 56.7372 18.6658 56.0009 18.6658H34.6675C33.9311 18.6658 33.3342 19.2627 33.3342 19.9991C33.3342 20.7355 33.9311 21.3324 34.6675 21.3324Z" fill="#255851"/>
<path d="M73.3342 29.3325C72.5978 29.3325 72.0009 29.9295 72.0009 30.6659V49.3325C72.0009 50.0689 72.5978 50.6659 73.3342 50.6659C74.0706 50.6659 74.6675 50.0689 74.6675 49.3325V30.6659C74.6675 29.9295 74.0706 29.3325 73.3342 29.3325Z" fill="#255851"/>
</svg>
