<svg width="95" height="72" viewBox="0 0 95 72" fill="none" xmlns="http://www.w3.org/2000/svg">
<path d="M94 44.8242C93.5613 45.6988 93.2793 46.6671 92.684 47.3856C90.2399 50.353 87.7645 53.3204 85.1011 56.1004C84.0625 57.1266 82.7623 57.8503 81.341 58.1932C77.0795 59.1928 75.0741 61.8479 74.6041 66.0335C74.4475 67.3766 73.9774 68.6573 73.6328 69.9692C73.3821 70.7814 72.8807 71.1562 72.0034 70.9063L55.2396 66.4396C54.3936 66.2209 54.1429 65.6899 54.3935 64.784C55.1456 62.129 55.7723 59.4427 56.5556 56.8189C56.9003 55.6944 56.8063 54.7885 55.9603 54.0076C51.3228 49.6658 50.4768 43.8247 49.5681 38.0147C49.4114 37.0777 49.1921 36.1718 49.0981 35.2347C49.0124 34.2442 49.2886 33.2561 49.8759 32.4525C50.4632 31.6489 51.322 31.084 52.2942 30.8617C54.4876 30.4244 56.5243 31.4552 57.057 33.6417C57.8489 36.6 58.4559 39.6044 58.8743 42.6377C59.1564 44.5743 60.253 45.9487 61.3811 47.3543C61.6004 47.6042 62.1958 47.6667 62.6031 47.6667C63.8878 47.7292 65.2039 47.573 66.4572 47.7916C68.2883 48.175 70.0978 48.6546 71.878 49.2285C72.6225 49.457 73.3376 49.7715 74.0088 50.1656C74.7295 50.5404 75.5441 51.54 76.0142 51.3838C77.4555 50.9152 78.9909 50.2905 80.0563 49.2285C82.375 46.9483 84.3804 44.3244 86.5738 41.888C87.1537 41.2423 87.923 40.7951 88.7724 40.6101C89.6217 40.425 90.508 40.5115 91.3053 40.8572C92.8406 41.5132 93.7807 42.9813 94 44.8242ZM71.8467 68.8135C72.5987 65.8773 73.3508 63.191 74.0088 60.4735C74.2908 59.4427 74.7921 58.7555 75.8262 58.3494C77.7375 57.6622 79.5863 56.8501 81.435 56.0067C82.3123 55.6006 83.2837 55.1321 83.9104 54.4449C86.3231 51.7899 88.6732 49.0723 90.9919 46.3235C92.0573 45.0741 92.0259 43.8871 91.0233 43.0438C90.0206 42.2004 88.8299 42.3566 87.7645 43.5748C86.6991 44.793 84.7251 46.7608 83.4717 48.5413C81.6543 51.1339 79.1163 52.5708 76.2335 53.6328C75.3561 53.9451 74.8548 53.7265 74.1968 53.1642C73.2051 52.2837 72.0717 51.5762 70.844 51.0714C69.4001 50.4762 67.8825 50.077 66.3319 49.8845C64.9845 49.697 63.5745 49.9469 62.2271 49.9469C61.6944 49.9469 60.9111 50.0406 60.7231 49.7283C59.2504 47.6979 57.245 46.0424 56.963 43.2312C56.6809 40.4199 55.9603 37.8273 55.4589 35.141C55.1142 33.4855 54.1429 32.5484 52.8895 32.7671C51.6361 32.9857 50.8528 34.204 51.1975 35.9219C51.5421 37.6399 51.8868 38.7644 52.0121 40.2013C52.4822 44.9804 54.1115 49.2597 57.527 52.7269C58.9683 54.1638 59.125 55.6631 58.467 57.5373C57.809 59.4114 57.1823 62.2852 56.5243 64.7216L71.8467 68.8135Z" fill="#008B75" stroke="#008B75" stroke-width="0.5"/>
<path d="M1 39.9513C1.28201 38.1396 2.25337 36.734 3.85142 36.1405C5.44946 35.547 7.26685 35.9218 8.55155 37.3275C10.5883 39.6077 12.4683 42.0753 14.6304 44.2306C15.7584 45.3239 17.3878 45.9486 18.8292 46.7295C19.0485 46.8545 19.4872 46.6046 19.7692 46.4796C21.3046 45.73 22.746 44.8554 24.344 44.2619C25.9421 43.6684 27.6341 43.3248 29.2948 42.9187C29.9033 42.7996 30.5245 42.7577 31.1435 42.7938C31.9269 42.7938 33.0236 43.2311 33.3683 42.8875C34.3396 41.8879 35.3423 40.6697 35.7183 39.3266C36.5644 36.2342 37.0344 33.0481 37.6297 29.8933C38.1311 27.207 40.1365 25.7389 42.6745 26.1762C45.2126 26.6135 46.2153 28.6438 45.808 31.1427C45.1499 34.9223 44.5233 38.7331 43.5519 42.4502C43.105 43.9834 42.2623 45.3729 41.1078 46.4796C38.3817 49.1972 37.7864 52.0709 39.3218 55.5693C39.9485 56.9437 40.1365 58.568 40.5751 60.0361C41.0138 61.5042 40.5125 61.5979 39.5098 61.8478C34.089 63.2846 28.6681 64.7215 23.2473 66.2208C22.1193 66.5019 21.6179 66.1271 21.3359 65.0651C20.6466 62.41 19.8632 59.7862 19.2052 57.0999C18.9859 56.1628 18.6098 55.5381 17.6385 55.2257C12.719 53.7264 8.64555 51.0401 5.70014 46.7608C4.69744 45.2614 3.2874 44.012 2.1907 42.5439C1.65802 41.7942 1.37601 40.8259 1 39.9513ZM23.1846 64.1592L38.4757 60.0673C37.6924 57.1311 36.8777 54.3823 36.2823 51.6023C36.1325 50.7262 36.311 49.8258 36.7837 49.0722C37.9117 47.323 39.2904 45.7612 40.4811 44.0432C41.117 43.1112 41.5837 42.0751 41.8598 40.9821C42.6119 37.7023 43.2072 34.36 43.8339 31.049C44.1159 29.5185 43.4892 28.394 42.2359 28.1128C40.9825 27.8317 39.9485 28.6751 39.6038 30.1744C39.2591 31.6737 39.1024 32.8295 38.8831 34.1726C38.1937 37.9522 37.7237 41.763 34.7156 44.6367C34.0263 45.3239 33.5563 45.5425 32.5849 45.2614C31.444 44.9406 30.2476 44.866 29.0755 45.0428C27.435 45.2924 25.8272 45.7218 24.2813 46.3235C23.028 46.8545 21.9313 47.7603 20.7406 48.4787C20.3332 48.7286 19.7692 49.2596 19.4872 49.1347C17.3878 48.1664 14.9751 47.854 13.3457 45.9174C11.2776 43.4497 9.1469 41.0446 6.98484 38.6394C6.10748 37.6398 5.01078 37.4836 3.94542 38.3895C2.88005 39.2953 2.91139 40.2949 3.72608 41.2944C7.9562 46.2922 11.685 51.9147 18.7352 53.539L19.0172 53.6639C20.2392 53.945 20.7406 54.7884 21.0226 55.9442C21.6493 58.6305 22.4013 61.2543 23.1846 64.1592Z" fill="#008B75" stroke="#008B75" stroke-width="0.5"/>
<path d="M37.8804 25.3641L36.5644 26.8322C33.8696 24.5832 30.6735 23.0214 29.2948 19.4292C28.2295 16.6805 26.7254 14.0879 25.4407 11.4328C24.156 8.77775 25.002 6.49751 27.1954 5.43549C29.3888 4.37346 31.6449 5.34178 32.8983 7.74696C34.1516 10.1521 35.3423 12.3699 36.2824 14.7751C37.0344 16.6805 38.4131 17.8987 40.0111 18.9919C40.1907 19.1059 40.392 19.1814 40.6024 19.2137C40.8128 19.246 41.0276 19.2343 41.2332 19.1794C45.8706 17.3989 50.4454 17.7425 55.2396 19.3043C57.057 18.211 58.6864 16.6805 59.595 14.3378C60.5037 11.9951 61.7258 9.83977 62.8538 7.62201C63.9818 5.40425 66.3632 4.46717 68.4626 5.46672C70.562 6.46628 71.4081 8.87145 70.28 11.2766C68.7133 14.5564 67.1466 17.8362 65.4859 21.0848C65.0371 21.9034 64.4425 22.6338 63.7312 23.24C62.6031 24.2396 61.3498 25.083 60.1904 26.0513C59.031 27.0196 56.9003 27.9567 57.8403 30.4556C55.1142 28.925 54.8636 27.3944 57.245 25.8639C61.6723 23.0775 65.0281 18.8848 66.7706 13.9629C67.2093 12.7447 67.8986 11.6202 68.4313 10.4333C68.964 9.24629 68.7446 7.74696 67.5853 7.24718C66.4259 6.7474 65.2979 7.24718 64.5772 8.68404C63.2298 11.4016 61.8511 14.0879 60.6291 16.8366C59.407 19.5854 57.3076 20.1789 55.4589 21.647C55.2083 21.8344 54.4562 21.4596 53.9235 21.3034C52.8268 20.9598 51.7302 20.3663 50.6021 20.2414C48.7776 20.0852 46.9431 20.0852 45.1186 20.2414C43.9515 20.371 42.8222 20.7321 41.7972 21.3034C40.8572 21.8657 40.2618 21.7719 39.4471 21.2097C36.8464 19.4605 34.935 17.3052 33.8383 14.369C33.0549 12.3699 32.0209 10.4957 31.0496 8.59033C30.3602 7.21594 29.1382 6.71617 28.0101 7.27841C26.8821 7.84066 26.5688 8.9964 27.1954 10.3708C28.7935 13.713 30.2662 17.1178 32.0836 20.3039C32.8356 21.6158 34.371 22.5216 35.5617 23.5524C36.7524 24.5832 37.0344 24.7081 37.8804 25.3641Z" fill="#008B75" stroke="#008B75" stroke-width="0.5"/>
<path d="M40.2931 8.55918C40.2244 7.52789 40.3685 6.4935 40.7167 5.51994C41.0648 4.54638 41.6096 3.65434 42.3172 2.89894C43.0248 2.14353 43.8804 1.54081 44.8309 1.12803C45.7814 0.715254 46.8068 0.50118 47.8436 0.49904C48.8804 0.4969 49.9067 0.70674 50.8589 1.11559C51.8112 1.52445 52.6692 2.12363 53.38 2.8761C54.0907 3.62858 54.6391 4.51837 54.9913 5.49048C55.3435 6.46259 55.492 7.49638 55.4275 8.52795C55.4589 12.6199 51.9808 16.0558 47.8447 16.0558C46.8544 16.0599 45.8732 15.8691 44.9572 15.4942C44.0412 15.1193 43.2084 14.5677 42.5068 13.8712C41.8052 13.1747 41.2484 12.3468 40.8685 11.4353C40.4886 10.5237 40.2931 9.54629 40.2931 8.55918ZM53.3281 8.52795C53.3281 7.44197 53.0055 6.38032 52.4009 5.47695C51.7963 4.57357 50.9368 3.86893 49.9309 3.45193C48.925 3.03493 47.8178 2.92426 46.7489 3.13386C45.68 3.34347 44.6973 3.86396 43.9248 4.62969C43.1523 5.39541 42.6246 6.37206 42.4083 7.43641C42.192 8.50076 42.2967 9.60514 42.7093 10.6102C43.1219 11.6153 43.8239 12.476 44.7267 13.0838C45.6295 13.6917 46.6926 14.0193 47.782 14.0255C48.5111 14.0381 49.2354 13.9047 49.912 13.6333C50.5885 13.3619 51.2035 12.9579 51.7207 12.4453C52.2378 11.9327 52.6465 11.3219 52.9226 10.649C53.1987 9.97613 53.3366 9.25488 53.3281 8.52795Z" fill="#008B75" stroke="#008B75" stroke-width="0.5"/>
<path d="M15.8524 34.4227C15.8688 32.4561 16.6597 30.5746 18.0548 29.184C19.4498 27.7933 21.3372 27.0048 23.31 26.9885C27.5401 26.9573 31.0495 30.3932 30.9868 34.5164C30.9242 38.6395 27.4461 42.0755 23.3726 42.0443C19.2992 42.013 15.8838 38.5771 15.8524 34.4227ZM28.8875 34.4851C28.9003 33.757 28.7654 33.0338 28.4909 32.359C28.2163 31.6841 27.8077 31.0716 27.2897 30.5581C26.7717 30.0446 26.1549 29.6408 25.4764 29.3709C24.7979 29.101 24.0716 28.9707 23.3413 28.9876C21.8787 29.0042 20.4826 29.5993 19.4601 30.642C18.4376 31.6847 17.8725 33.0896 17.8891 34.5476C17.9058 36.0057 18.5027 37.3974 19.5487 38.4167C20.5947 39.436 22.004 39.9993 23.4666 39.9827C24.1853 39.9786 24.896 39.833 25.558 39.5541C26.22 39.2752 26.8201 38.8686 27.3239 38.3577C27.8277 37.8468 28.2252 37.2416 28.4935 36.577C28.7618 35.9124 28.8957 35.2015 28.8875 34.4851Z" fill="#008B75" stroke="#008B75" stroke-width="0.5"/>
<path d="M71.596 31.6426C73.5909 31.6507 75.5022 32.4422 76.9157 33.8454C78.3292 35.2487 79.1311 37.1507 79.1476 39.1392C79.0278 41.0563 78.1805 42.856 76.7777 44.1728C75.3749 45.4895 73.5219 46.2246 71.5951 46.2285C69.6683 46.2325 67.8122 45.5051 66.4039 44.1942C64.9957 42.8832 64.1409 41.087 64.0132 39.1705C63.9818 35.0785 67.4286 31.6738 71.596 31.6426ZM66.1125 39.108C66.0916 39.8239 66.2146 40.5368 66.4741 41.2047C66.7336 41.8726 67.1245 42.4821 67.6237 42.9972C68.1229 43.5123 68.7204 43.9227 69.3811 44.2043C70.0417 44.4859 70.7522 44.6329 71.4707 44.6368C72.1949 44.6511 72.9149 44.5232 73.5895 44.2601C74.2641 43.9971 74.8801 43.6042 75.4024 43.1039C75.9247 42.6035 76.343 42.0056 76.6334 41.3441C76.9239 40.6826 77.0808 39.9705 77.0952 39.2486C77.1096 38.5266 76.9812 37.8089 76.7174 37.1364C76.4535 36.4639 76.0594 35.8498 75.5575 35.3292C75.0556 34.8085 74.4557 34.3915 73.7921 34.102C73.1285 33.8125 72.4143 33.656 71.69 33.6417C70.9586 33.6161 70.2297 33.7393 69.5476 34.0038C68.8655 34.2682 68.2446 34.6684 67.7227 35.1798C67.2009 35.6913 66.7889 36.3034 66.5121 36.9787C66.2353 37.6541 66.0993 38.3786 66.1125 39.108Z" fill="#008B75" stroke="#008B75" stroke-width="0.5"/>
</svg>
