<svg width="16" height="16" viewBox="0 0 16 16" fill="none" xmlns="http://www.w3.org/2000/svg">
<path fill-rule="evenodd" clip-rule="evenodd" d="M0.150391 3.85156C0.150391 1.72266 1.875 0 4 0H12C14.127 0 15.8496 1.72266 15.8496 3.85156V11.8516C15.8496 13.9766 14.127 15.6992 12 15.6992H4C1.875 15.6992 0.150391 13.9766 0.150391 11.8516V3.85156ZM4 1.69922C3.57227 1.69922 3.17383 1.82422 2.83984 2.03906C2.24414 2.42578 1.84961 3.09375 1.84961 3.85156V11.8516C1.84961 12.1367 1.90625 12.4102 2.00781 12.6602C2.32617 13.4453 3.09766 14 4 14H12C13.1875 14 14.1504 13.0391 14.1504 11.8516V3.85156C14.1504 3.14453 13.8086 2.51562 13.2793 2.12109C12.9219 1.85547 12.4785 1.69922 12 1.69922H4ZM4.15039 7.84766C4.15039 5.72656 5.87695 4 8 4C10.125 4 11.8496 5.72656 11.8496 7.84766C11.8496 9.97266 10.125 11.6992 8 11.6992C5.87695 11.6992 4.15039 9.97266 4.15039 7.84766ZM8 5.69922C6.81641 5.69922 5.84961 6.66406 5.84961 7.84766C5.84961 9.03516 6.81641 10 8 10C9.18555 10 10.1504 9.03516 10.1504 7.84766C10.1504 6.66406 9.18555 5.69922 8 5.69922ZM11.9004 4.65234C12.3965 4.65234 12.8008 4.25 12.8008 3.75C12.8008 3.25391 12.3965 2.85156 11.9004 2.85156C11.4023 2.85156 11 3.25391 11 3.75C11 4.25 11.4023 4.65234 11.9004 4.65234Z" fill="black"/>
</svg>
