<svg width="15" height="13" viewBox="0 0 15 13" fill="none" xmlns="http://www.w3.org/2000/svg">
<path d="M14.1707 7.96558V12.9129H11.3024V8.29714C11.3024 7.13817 10.8883 6.3467 9.84973 6.3467C9.05719 6.3467 8.58637 6.87955 8.37845 7.39551C8.30294 7.5799 8.28348 7.83595 8.28348 8.09457V12.9127H5.41492C5.41492 12.9127 5.45343 5.09511 5.41492 4.28588H8.28369V5.50838C8.27791 5.51801 8.26978 5.52742 8.26465 5.53662H8.28369V5.50838C8.66488 4.92184 9.34469 4.0833 10.8688 4.0833C12.7559 4.0833 14.1707 5.31629 14.1707 7.96558ZM2.41417 0.127441C1.43296 0.127441 0.791016 0.771529 0.791016 1.61776C0.791016 2.44603 1.41435 3.10872 2.37653 3.10872H2.39514C3.3956 3.10872 4.01765 2.44603 4.01765 1.61776C3.99862 0.771529 3.3956 0.127441 2.41417 0.127441ZM0.961503 12.9129H3.82898V4.28588H0.961503V12.9129Z" fill="black"/>
</svg>
