<svg width="150" height="40" viewBox="0 0 150 40" fill="none" xmlns="http://www.w3.org/2000/svg">
<path d="M22.0255 39.244C21.8875 39.244 21.7495 39.3383 21.8185 39.527C22.0253 39.6981 22.2695 39.7649 22.5085 39.7157C23.2676 39.81 24.0956 40.1873 24.8546 39.81C26.2149 39.85 27.5755 39.7554 28.9258 39.527C27.9597 39.3383 22.5085 39.1497 22.0255 39.244Z" fill="#255851"/>
<path d="M59.6318 36.7912C60.1838 36.9799 60.5979 36.8856 60.6669 36.5082C60.7359 36.1309 60.1838 35.9422 59.6318 35.8479C59.0798 35.7535 58.0448 36.6025 57.0787 36.5082C56.1127 36.4139 54.5256 36.2252 53.2836 36.1309H53.0766C52.7316 36.2252 52.1796 36.1309 52.2486 36.6969C52.3176 37.2629 52.7316 37.1686 53.1456 37.0742L57.3547 36.8856C58.1828 37.3572 58.9418 36.6025 59.6318 36.7912Z" fill="#255851"/>
<path d="M66.6701 38.5836C66.5321 38.5836 66.5321 38.8666 66.6011 38.961C66.6701 39.0553 67.7051 39.1496 68.2571 39.244H69.1542C69.1581 39.0726 69.1193 38.9045 69.044 38.7673C68.9688 38.6301 68.8616 38.5321 68.7401 38.4893C68.0588 38.2361 67.3375 38.269 66.6701 38.5836Z" fill="#255851"/>
<path d="M57.0787 37.8289C56.9407 37.9232 56.9407 38.0176 57.0097 38.1119C58.4363 38.2782 59.8721 38.2149 61.2879 37.9232C59.907 37.4692 58.4698 37.437 57.0787 37.8289Z" fill="#255851"/>
<path d="M68.6711 37.2629L67.7741 37.5459C66.8081 37.0742 65.98 37.6403 64.945 37.6403C65.2597 37.8738 65.6076 38.0116 65.9649 38.0442C66.3222 38.0767 66.6805 38.0033 67.0151 37.8289C67.6115 38.14 68.2665 38.1732 68.8781 37.9233C69.0161 37.8289 69.2922 37.7346 69.2922 37.5459C69.2922 37.3572 68.9471 37.2629 68.6711 37.2629Z" fill="#255851"/>
<path d="M36.654 39.1497C37.137 39.9043 37.8961 39.527 38.4481 39.527C39.0001 39.527 37.4821 38.8666 36.654 39.1497Z" fill="#255851"/>
<path d="M48.3154 38.3006V38.7723H43.5543C44.5893 39.527 45.6243 39.0553 46.6594 39.0553C47.6944 39.0553 47.7634 39.0553 48.3154 39.3383C48.8755 39.3842 49.4369 39.2883 49.9715 39.0553C50.9375 39.1496 51.9036 39.527 53.0076 39.0553C52.5936 38.5836 52.0416 38.8666 51.6965 38.6779L50.6615 38.2063C51.6965 38.0176 52.8696 38.3949 53.9046 37.9232C52.8006 37.8289 51.7656 37.3572 50.6615 37.9232C50.2575 37.6412 49.7984 37.5421 49.3505 37.6402H47.0044L46.6594 37.9232L48.3154 38.2063V38.3006Z" fill="#255851"/>
<path d="M142.849 17.075V17.2637L146.161 16.8863C144.85 16.509 143.884 17.075 142.849 17.075Z" fill="#255851"/>
<path d="M55.2847 37.9233C55.5346 38.1596 55.8257 38.3016 56.1286 38.3347C56.4316 38.3679 56.7355 38.291 57.0097 38.1119C57.0097 38.0176 57.0787 37.9233 57.0787 37.8289C56.48 37.7658 55.878 37.7975 55.2847 37.9233Z" fill="#255851"/>
<path d="M81.5056 38.5836H80.8846C80.5396 38.6779 79.6425 38.3006 79.7805 38.8666C79.9185 39.4326 80.4015 38.5836 80.8156 38.8666L81.5056 39.2439C81.8506 39.4326 82.2646 39.527 82.4026 39.1496C82.5406 38.7723 82.0576 38.5836 81.5056 38.5836Z" fill="#255851"/>
<path d="M59.0798 38.8666L60.1148 39.1496C61.473 39.2769 62.8372 39.2137 64.186 38.961C63.2638 38.6288 62.3046 38.5328 61.3569 38.678C60.5951 38.6121 59.8302 38.6755 59.0798 38.8666Z" fill="#255851"/>
<path d="M33.2729 39.244C32.7123 39.1659 32.1461 39.2627 31.6168 39.527H33.2039C34.0574 39.603 34.9145 39.5397 35.757 39.3383C34.9349 39.1678 34.1006 39.1361 33.2729 39.244Z" fill="#255851"/>
<path d="M144.643 23.9615C144.091 23.9615 143.539 23.8672 143.194 24.8105L144.643 23.9615Z" fill="#255851"/>
<path d="M77.1584 38.678C76.7444 38.678 75.9854 38.395 75.9854 39.0553C75.9854 39.7157 76.7444 39.3383 77.2274 39.244H77.5034C77.9175 39.3383 78.3315 39.527 78.6765 39.0553C78.2201 38.684 77.6812 38.5501 77.1584 38.678Z" fill="#255851"/>
<path d="M148.576 20.9428C147.891 20.9857 147.216 21.1767 146.575 21.5088C146.437 21.5717 146.437 21.666 146.575 21.7918L148.921 21.3201C149.335 21.2258 149.749 21.2258 149.956 20.7541C149.493 20.6254 149.012 20.6912 148.576 20.9428Z" fill="#255851"/>
<path d="M83.2997 37.9233C83.7666 38.1404 84.2688 38.1731 84.7487 38.0176C84.5449 37.7963 84.2953 37.6681 84.0353 37.6512C83.7753 37.6342 83.518 37.7294 83.2997 37.9233Z" fill="#255851"/>
<path d="M53.3526 39.244C53.5878 39.3991 53.8436 39.4875 54.1046 39.5037C54.3655 39.5199 54.6261 39.4637 54.8707 39.3383C55.0087 39.244 54.9397 39.0553 54.6636 38.9609C54.3876 38.8666 53.6286 38.4893 53.3526 39.244Z" fill="#255851"/>
<path d="M74.4673 38.6779V38.1119C74.6053 37.9233 75.1574 38.3006 75.0884 37.8289C75.0194 37.3572 73.7773 37.6402 73.1563 37.5459C72.5353 37.4516 72.0522 37.2629 72.1213 37.8289L72.8113 38.3949C72.5353 38.5836 72.3283 38.8666 72.6043 39.0553C72.8803 39.244 73.6393 38.8666 74.1223 38.961C74.6053 39.0553 75.0194 39.4326 75.2264 39.0553C75.4334 38.6779 74.8123 38.6779 74.4673 38.6779Z" fill="#255851"/>
<path d="M85.7147 38.0176C86.0597 38.3006 86.4047 38.2063 87.0258 38.1119C86.8326 37.94 86.6097 37.8408 86.3795 37.8243C86.1493 37.8077 85.92 37.8744 85.7147 38.0176Z" fill="#255851"/>
<path d="M144.919 21.7918C144.45 21.7787 143.984 21.8744 143.539 22.0748H142.573C142.504 21.9804 142.573 21.9804 142.504 21.9804V21.3201H142.573C143.054 21.3221 143.529 21.1599 143.953 20.8484H144.229C144.643 20.7541 145.195 21.0371 145.402 20.4711H144.574V20.1881L145.264 19.622H147.265C148.093 19.622 148.369 18.9617 148.99 18.6787C148.478 18.2514 147.901 17.9872 147.304 17.9055C146.707 17.8239 146.104 17.9269 145.54 18.207L142.573 18.3957C142.573 18.4207 142.565 18.4447 142.553 18.4624C142.54 18.4801 142.522 18.49 142.504 18.49C142.408 18.1195 142.21 17.8149 141.952 17.641L142.849 17.4523C143.079 17.3894 143.079 17.2951 142.849 17.1693H140.227L140.503 16.8863L143.539 16.509C143.499 16.4606 143.474 16.393 143.47 16.3203H139.882C139.537 16.2259 138.847 16.3203 138.847 15.9429C138.797 15.7953 138.773 15.6337 138.778 15.4713C140.066 15.5349 141.356 15.5034 142.642 15.3769H143.608C143.677 15.2826 143.539 15.2826 143.47 15.1882H143.608V15.3769C144.406 15.4601 145.207 15.299 145.954 14.9052C147.015 14.846 148.053 14.459 148.99 13.7732C149.749 13.2072 149.611 12.5468 149.749 11.7921C149.887 11.0375 149.542 10.7545 149.749 10.1884C150.163 8.96207 149.956 7.7357 149.887 6.50933C149.818 5.28296 149.818 6.32066 149.749 6.22632C149.68 6.13198 150.37 5.18862 149.68 4.71694C149.956 4.24526 150.163 3.77358 149.68 3.3019C149.197 2.83022 148.438 1.9812 147.334 1.9812H146.575L145.609 1.32084L142.573 1.03783L142.228 1.22651C141.331 1.32084 140.365 0.943498 139.606 1.50952C138.847 2.07553 138.019 0.283146 136.915 0.943498C135.81 1.60385 136.432 0.66049 136.225 0.943498H135.258C135.131 0.879329 134.994 0.862985 134.86 0.896167C134.727 0.929349 134.602 1.01085 134.499 1.13217C134.292 1.03783 134.016 0.754826 133.878 1.13217C133.74 1.50952 133.671 1.88686 134.223 1.9812C133.05 2.16987 131.946 1.88686 130.842 2.2642C129.738 2.64155 128.91 1.32084 128.151 2.54721H122.838C119.664 1.9812 116.559 2.54721 113.385 2.54721C112.833 2.83022 113.247 3.39624 112.764 3.67925H111.798C111.039 2.64155 110.004 3.11323 109.038 3.39624C108.141 4.05659 107.451 3.3019 106.691 3.11323C105.932 2.92456 105.449 3.01889 106.07 2.35854C106.691 1.69819 106.829 2.45288 107.105 2.07553C106.304 1.94998 105.496 1.91842 104.69 1.9812C104.243 1.87624 103.782 1.97569 103.379 2.2642L101.654 1.9812V1.60385H106.415C105.449 0.849162 104.345 1.32084 103.379 1.32084C102.413 1.32084 102.206 1.32084 101.723 1.03783C101.163 0.980106 100.6 1.07633 100.067 1.32084C99.0322 1.22651 98.0662 0.849162 97.0311 1.32084C97.4452 1.79252 97.9282 1.50951 98.3422 1.69819L99.3772 2.16987C98.2732 2.35854 97.1001 1.9812 96.0651 2.45288C97.1691 2.54721 98.2732 3.01889 99.3082 2.45288C99.7366 2.7364 100.218 2.8351 100.688 2.73588H102.965L103.379 3.01889C103.172 3.86792 102.482 3.39624 101.999 3.39624C101.516 3.39624 99.7222 3.01889 99.1012 4.3396C100.068 4.51649 101.05 4.45257 101.999 4.15093C102.551 3.86792 102.896 4.43393 103.379 4.43393C103.862 4.43393 106.277 3.96225 107.658 4.43393C107.727 4.52827 107.658 4.62261 107.658 4.71694C107.658 4.81128 106.415 5.18862 106.346 5.84898C105.541 5.7862 104.733 5.81776 103.931 5.94331C103.182 5.73946 102.416 5.67599 101.654 5.75464L101.309 6.03765L101.654 5.84898H99.7222C97.8414 5.61336 95.9525 5.51888 94.064 5.56597C92.615 5.28296 91.0969 5.37729 89.5789 5.28296H87.9228C86.2495 5.04928 84.5673 4.95477 82.8856 4.99995H83.2306C83.9897 5.18862 84.6797 4.52827 85.5077 4.71694C85.7826 4.92338 86.0911 5.03162 86.4048 5.03162C86.7184 5.03162 87.0269 4.92338 87.3018 4.71694H88.0608C88.2678 4.24526 87.7158 4.3396 87.5088 4.15093H86.8878L86.2668 4.3396C85.0247 3.49057 83.5757 4.3396 82.1956 4.15093H81.9196C81.4222 4.12937 80.9274 4.25822 80.4706 4.52827H80.2635C79.7023 4.30906 79.1108 4.27671 78.5385 4.43393C77.8831 4.21715 77.2022 4.18505 76.5374 4.3396C75.9156 4.01263 75.2272 4.01263 74.6053 4.3396C73.6975 4.0866 72.767 4.02299 71.8452 4.15093C71.2761 4.35394 70.6757 4.32111 70.1202 4.05659L65.497 3.86792L62.7369 3.67925C61.9779 3.20756 60.8739 3.77358 60.1148 3.3019C61.3569 2.73588 61.3569 2.73588 60.8049 2.45288L61.1499 2.16987C61.6329 1.9812 62.0469 2.54721 62.4609 2.16987H63.565C63.2199 1.9812 63.0129 1.41518 62.3919 1.88686C61.836 1.44803 61.2053 1.21701 60.5634 1.21701C59.9214 1.21701 59.2907 1.44803 58.7348 1.88686C58.7348 1.69819 58.6658 1.50952 58.3898 1.41518H57.8378C57.2167 0.754826 56.6647 1.60385 56.1127 1.41518L55.6987 0.377482C54.8462 0.002269 53.9291 0.002269 53.0766 0.377482C52.6626 0.377482 52.2486 0.283146 52.0416 0.66049C51.8345 1.03783 50.6615 0.849162 50.0405 0.471818H49.3505L48.0394 0.66049C47.8195 0.385514 47.5529 0.189774 47.2638 0.0909521C46.9747 -0.0078695 46.6721 -0.00665925 46.3834 0.0944735C44.6583 0.566154 43.0022 -0.0941987 41.3462 0.18881C39.6901 0.471818 38.6551 0.377482 37.275 0.471818H36.93C35.9375 0.279 34.9263 0.375448 33.9629 0.754826H33.8939L33.5489 0.566154H31.2718C30.7198 0.283146 30.0988 0.566154 29.5468 0.283146H29.2018C26.6777 -0.0145619 24.1418 -0.0775976 21.6115 0.0944735C19.9554 0.18881 18.2994 0.000137423 16.7813 0.566154C15.2633 1.13217 16.0913 1.41518 16.1603 1.9812C15.8851 2.30269 15.672 2.71175 15.5396 3.17236C15.4072 3.63297 15.3597 4.131 15.4013 4.62261C15.1955 5.24517 15.0891 5.9205 15.0891 6.60366C15.0891 7.28683 15.1955 7.96216 15.4013 8.58472V9.15074C14.5732 9.52808 13.6762 8.77339 12.7792 9.24508C11.0541 9.24508 9.26006 9.24508 8.08702 10.6601L7.74201 10.9431C7.63882 11.0051 7.55475 11.1145 7.50434 11.2523C7.45393 11.3902 7.44037 11.5478 7.466 11.6978C7.05198 11.8865 6.56897 12.1695 6.77597 12.7355C6.98298 13.3015 6.77597 13.3959 7.18999 13.5845C7.20083 13.8708 7.17753 14.1575 7.12099 14.4336C6.56897 15.2826 7.12099 15.3769 7.673 15.3769V16.2259C7.397 16.4146 7.39699 16.6033 7.466 16.792V17.4523C7.46917 17.5034 7.46468 17.5549 7.45282 17.6035C7.44096 17.6522 7.42196 17.697 7.39699 17.7353L6.15495 18.1127L6.43096 18.3957H7.466V19.056C6.98446 19.0541 6.51016 19.2162 6.08595 19.5277H5.74094C5.39592 19.622 4.7749 19.339 4.5679 19.9051H5.39592C5.39592 19.9994 5.46493 20.0937 5.46493 20.1881L4.7749 20.7541H2.77383C1.8768 20.7541 1.60079 21.4144 0.97977 21.6974C1.50449 22.1264 2.09218 22.3912 2.70065 22.4727C3.30911 22.5543 3.92323 22.4506 4.49889 22.1691L7.39699 21.9804H7.466C7.56211 22.3509 7.76016 22.6555 8.01802 22.8295L7.12099 23.0181C6.98298 23.1439 6.98298 23.2383 7.12099 23.3012H9.74308L9.46707 23.5842L6.49996 23.9615V24.1502H10.1571C10.5021 24.2445 11.1231 24.1502 11.1921 24.5275C11.1709 24.691 11.1956 24.8594 11.2611 24.9992C9.94978 24.9363 8.63692 24.9678 7.32799 25.0935H6.43096C6.36196 25.1879 6.43096 25.1879 6.49996 25.2822H6.43096V25.0935C5.63269 24.9969 4.829 25.1585 4.08488 25.5652C3.02219 25.6144 1.98257 26.002 1.04877 26.6973C0.289746 27.2633 0.358748 27.9236 0.289746 28.6783C0.220743 29.433 0.427751 29.716 0.289746 30.282C0.151741 30.848 0.0827385 32.9234 0.0827385 34.1498L0.220743 34.4328C0.565755 34.9045 -0.400278 35.4705 0.358748 35.9422H0.289746C0.0137361 36.4139 -0.193271 36.8856 0.289746 37.3572C0.772763 37.8289 1.53179 38.6779 2.70483 38.6779H3.39485L4.42989 38.9609L7.39699 39.244L7.74201 39.0553C8.63904 38.9609 9.60507 39.3383 10.4331 38.7723C11.2611 38.2063 11.9512 39.9986 13.1242 39.3383C13.2324 39.2705 13.3501 39.2353 13.4692 39.2353C13.5883 39.2353 13.706 39.2705 13.8142 39.3383H14.7113C15.0563 39.4326 15.3323 39.4326 15.4703 39.1496C15.481 38.9866 15.4571 38.8228 15.4013 38.6779C15.4013 38.8666 15.3323 39.0553 15.4703 39.1496C15.6083 39.244 15.9533 39.527 16.1603 39.1496C16.3673 38.7723 16.2983 38.3949 15.8153 38.3006C16.9193 38.1119 18.0924 38.3949 19.1964 38.0176C20.3004 37.6402 21.0595 38.9609 21.8185 37.7346H27.2007C30.3058 38.3006 33.4799 37.7346 36.585 37.7346C37.137 37.4516 36.792 36.8856 37.275 36.6025H38.2411C39.0001 37.6402 39.9661 37.1686 40.9322 36.8856C41.8982 36.6025 42.5192 36.9799 43.2782 37.1686C44.0373 37.3572 44.5203 37.2629 43.8993 37.9232C43.2782 38.5836 43.1402 37.8289 42.8642 38.2063C43.6659 38.3304 44.4738 38.362 45.2793 38.3006C45.7497 38.406 46.2323 38.3071 46.6594 38.0176C46.7974 37.9232 47.0044 37.8289 47.0044 37.7346L46.5904 37.4516C46.8664 36.6025 47.4874 37.0742 47.9704 37.0742C48.4534 37.0742 50.3165 37.4516 50.8685 36.1309C49.9019 35.9581 48.9206 36.022 47.9704 36.3195C47.4184 36.6025 47.1424 36.0365 46.6594 36.0365C46.1763 36.0365 43.7613 36.5082 42.3122 36.0365C42.309 35.9854 42.3135 35.934 42.3254 35.8853C42.3373 35.8366 42.3563 35.7918 42.3812 35.7535C42.5192 35.1875 43.6233 35.2818 43.6233 34.6215C44.4518 34.6842 45.2827 34.6526 46.1073 34.5271C46.8566 34.731 47.6227 34.7945 48.3844 34.7158L48.6604 34.4328L48.3844 34.6215H50.2475C52.1284 34.8571 54.0173 34.9516 55.9057 34.9045C57.4237 35.1875 58.9418 35.0932 60.3908 35.1875H62.1159C63.789 35.425 65.4714 35.5195 67.1531 35.4705H66.7391C65.98 35.3762 65.29 35.9422 64.531 35.7535C64.2561 35.5471 63.9476 35.4388 63.634 35.4388C63.3203 35.4388 63.0118 35.5471 62.7369 35.7535H61.9779C61.7709 36.2252 62.2539 36.1309 62.5299 36.3195H63.1509L63.703 36.1309C65.014 36.9799 66.4631 36.1309 67.7741 36.3195H68.1191C68.5967 36.3961 69.0798 36.264 69.4992 35.9422H69.7752C70.336 36.1651 70.9282 36.1975 71.5002 36.0365C72.1551 36.2587 72.8368 36.2908 73.5013 36.1309C74.0988 36.4613 74.7669 36.4613 75.3644 36.1309C76.2724 36.381 77.2027 36.4446 78.1245 36.3195C78.6931 36.1107 79.2949 36.1436 79.8495 36.4139L84.5417 36.6025L87.2328 36.7912C87.7843 36.8384 88.3374 36.8384 88.8889 36.7912H87.2328C88.0608 37.2629 89.0959 36.6969 89.9239 37.1686C89.9239 37.1936 89.9312 37.2176 89.9441 37.2353C89.957 37.253 89.9746 37.2629 89.9929 37.2629H89.9239C88.6818 37.8289 88.6818 37.8289 89.2339 38.1119L88.8198 38.3949C88.4058 38.5836 87.9918 38.0176 87.5088 38.3949H87.3018C86.1287 37.9232 84.8867 38.3006 83.7137 38.2063C82.5406 38.1119 83.2997 38.3006 83.4377 38.4893C83.5757 38.6779 83.5067 38.9609 83.7827 38.8666C84.0587 38.7723 85.6457 39.1496 86.4048 38.4893C87.1638 37.8289 86.9568 39.244 87.5778 38.7723C88.1338 39.2111 88.7644 39.4421 89.4064 39.4421C90.0483 39.4421 90.679 39.2111 91.2349 38.7723C91.2349 39.0553 91.3039 39.1496 91.5799 39.244H92.201C92.753 39.9043 93.305 39.0553 93.926 39.244L94.271 39.527C95.1469 39.9035 96.0862 39.9035 96.9621 39.527C97.3071 39.527 97.7902 39.6213 97.9972 39.244C98.2042 38.8666 99.3772 39.0553 99.9982 39.527H100.619L101.999 39.3383C102.216 39.6209 102.482 39.8217 102.773 39.921C103.063 40.0202 103.367 40.0145 103.655 39.9043C105.311 39.4326 107.036 40.093 108.693 39.81C110.349 39.527 111.384 39.6213 112.695 39.527H113.04C114.055 39.7191 115.089 39.6228 116.076 39.244L116.421 39.4326H118.698C119.25 39.7156 119.871 39.4326 120.423 39.7156H120.837C123.361 40.0151 125.897 40.0781 128.427 39.9043C130.014 39.81 131.67 39.9986 133.257 39.4326C133.471 39.3447 133.653 39.1509 133.768 38.8893C133.883 38.6276 133.922 38.3168 133.878 38.0176C134.132 37.6775 134.326 37.263 134.446 36.8055C134.565 36.3479 134.607 35.8591 134.568 35.3762C134.774 34.7536 134.881 34.0783 134.881 33.3951C134.881 32.712 134.774 32.0366 134.568 31.4141V30.848C135.465 30.4707 136.363 31.2254 137.191 30.7537C138.985 30.7537 140.71 30.7537 141.952 29.3387L142.297 29.0557C142.347 29.0251 142.392 28.9812 142.43 28.9266C142.467 28.872 142.496 28.8077 142.516 28.7375C142.535 28.6673 142.544 28.5925 142.542 28.5176C142.54 28.4427 142.527 28.369 142.504 28.301C142.987 28.1123 143.47 27.8293 143.194 27.2633C142.918 26.6973 143.194 26.6029 142.78 26.4142C142.78 26.1312 142.849 25.8482 142.849 25.5652C142.849 25.2822 142.918 24.6219 142.366 24.6219C141.814 24.6219 142.366 24.3389 142.297 24.2445C142.313 24.0856 142.336 23.9281 142.366 23.7728C142.438 23.7174 142.496 23.6339 142.532 23.5331C142.569 23.4322 142.583 23.3186 142.573 23.2068C142.584 22.9825 142.56 22.7575 142.504 22.5465C142.573 22.4521 142.504 22.3578 142.573 22.2635L143.884 21.8861L145.195 21.6031L146.575 21.3201V21.0371C145.991 21.133 145.428 21.3897 144.919 21.7918ZM15.8153 6.88667H15.8843C15.8843 6.91169 15.877 6.93569 15.8641 6.95338C15.8511 6.97107 15.8336 6.98101 15.8153 6.98101V6.88667ZM101.171 38.3006H101.24C101.24 38.3949 101.309 38.3006 101.309 38.3949H101.171V38.3006ZM12.4342 31.3197V31.6027C12.5032 31.5084 12.4342 31.4141 12.4342 31.3197ZM137.536 9.15074V8.86773H137.605C137.58 8.90602 137.561 8.95086 137.549 8.99952C137.537 9.04818 137.532 9.09963 137.536 9.15074ZM25.8206 33.5838H25.8896C25.8792 33.5755 25.8673 33.5711 25.8551 33.5711C25.843 33.5711 25.8311 33.5755 25.8206 33.5838ZM131.118 5.94331C130.996 6.01894 130.898 6.15312 130.842 6.32066C131.049 6.22632 131.049 6.03765 131.118 5.94331ZM144.919 9.15074C144.919 9.15074 144.988 9.0564 144.919 9.0564V9.15074ZM68.4641 5.28296H67.8431C67.9394 5.34931 68.0458 5.38387 68.1536 5.38387C68.2615 5.38387 68.3678 5.34931 68.4641 5.28296ZM19.1274 34.1498C18.9894 34.2441 18.9894 34.4328 18.9204 34.5271C19.0584 34.4328 19.1274 34.3385 19.1274 34.1498ZM81.5056 35.1875H82.1956C82.0993 35.1212 81.993 35.0866 81.8851 35.0866C81.7773 35.0866 81.6709 35.1212 81.5746 35.1875H81.5056ZM9.19106 36.5082C9.19106 36.4139 9.26006 36.4139 9.39806 36.4139H9.19106V36.5082ZM24.1646 35.1875C24.1829 35.1875 24.2004 35.1974 24.2134 35.2151C24.2263 35.2328 24.2336 35.2568 24.2336 35.2818H24.1646V35.1875ZM140.641 3.49057H140.572V3.3019H140.641C140.622 3.3019 140.605 3.31184 140.592 3.32953C140.579 3.34722 140.572 3.37122 140.572 3.39624C140.572 3.42126 140.579 3.44525 140.592 3.46294C140.605 3.48063 140.622 3.49057 140.641 3.49057ZM139.813 3.3019C139.813 3.20756 139.813 3.20756 139.744 3.20756H139.813V3.3019ZM9.32906 36.9799H9.39806V37.1686C9.39806 37.0742 9.39806 36.9799 9.32906 36.9799ZM10.1571 37.1686C10.1571 37.1936 10.1644 37.2176 10.1773 37.2353C10.1902 37.253 10.2078 37.2629 10.2261 37.2629H10.0881C10.1064 37.2629 10.1239 37.253 10.1369 37.2353C10.1498 37.2176 10.1571 37.1936 10.1571 37.1686ZM8.84605 37.9232C8.84605 37.8289 8.77704 37.8289 8.70804 37.8289H8.84605V37.9232ZM97.5832 38.2063C97.6522 38.3006 97.5832 38.2063 97.5832 38.2063V38.2063ZM146.575 1.79252H145.954C145.885 1.88686 145.885 1.79252 145.885 1.88686H145.954C146.052 1.95875 146.164 1.98822 146.275 1.97138C146.386 1.95454 146.49 1.89218 146.575 1.79252ZM76.1234 4.05659C76.1924 4.3396 76.3304 4.3396 76.3994 4.52827H74.7434C75.1547 4.17359 75.6383 4.0083 76.1234 4.05659ZM59.9768 2.64155H60.1148C60.1148 2.64155 60.0458 2.64155 59.9768 2.64155ZM3.46386 21.1314C3.44556 21.1314 3.428 21.1414 3.41506 21.1591C3.40212 21.1767 3.39485 21.2007 3.39485 21.2258C3.39485 21.2007 3.38758 21.1767 3.37464 21.1591C3.3617 21.1414 3.34415 21.1314 3.32585 21.1314H3.46386ZM3.46386 38.6779H4.08488C3.99788 38.5781 3.88794 38.5234 3.77437 38.5234C3.66079 38.5234 3.55085 38.5781 3.46386 38.6779ZM73.8463 36.4139C73.7773 36.1309 73.7083 36.1309 73.6393 35.9422H75.2264C74.8192 36.3101 74.3322 36.4765 73.8463 36.4139Z" fill="url(#paint0_linear)"/>
<path d="M127.944 1.22652C128.151 1.22652 128.289 1.13219 128.22 0.943516C128.151 0.754844 127.806 0.754844 127.461 0.754844C127.116 0.754844 125.943 0.283163 125.115 0.660508C123.778 0.620795 122.44 0.715385 121.113 0.943516C122.01 1.13219 127.461 1.32086 127.944 1.22652Z" fill="#255851"/>
<path d="M90.3379 3.67927C89.7859 3.4906 89.4409 3.58493 89.3719 3.96228C89.3029 4.33962 89.8549 4.5283 90.3379 4.62263C90.8209 4.71697 91.994 3.86794 92.96 3.96228C93.926 4.05661 95.4441 4.24529 96.7551 4.33962H96.8931C97.2381 4.24529 97.8592 4.33962 97.7902 3.77361C97.7212 3.20759 97.2381 3.30193 96.8241 3.39626L92.615 3.58493C91.787 3.11325 91.0969 3.86794 90.3379 3.67927Z" fill="#255851"/>
<path d="M83.3687 1.88688C83.4377 1.88688 83.5067 1.60388 83.4377 1.50954C83.3687 1.4152 82.2646 1.32087 81.7126 1.22653H80.8156C80.827 1.40614 80.88 1.5761 80.9669 1.71179C81.0537 1.84747 81.1699 1.94184 81.2986 1.98122C81.9799 2.23439 82.7012 2.20152 83.3687 1.88688Z" fill="#255851"/>
<path d="M92.96 2.64155C93.5577 2.74765 94.1641 2.71576 94.7541 2.54721C94.491 2.31121 94.1885 2.17013 93.8748 2.13714C93.5611 2.10415 93.2464 2.18032 92.96 2.35854C91.5564 2.19264 90.1434 2.25597 88.7509 2.54721C90.1318 3.0013 91.5689 3.03351 92.96 2.64155Z" fill="#255851"/>
<path d="M88.6128 1.79254C89.3741 1.91014 90.1446 1.84631 90.8899 1.60386L89.9239 1.32086C88.5427 1.19497 87.1557 1.25817 85.7837 1.50953C86.7064 1.83747 87.665 1.93336 88.6128 1.79254Z" fill="#255851"/>
<path d="M66.2561 1.79252C66.5321 1.88685 66.6701 1.69818 66.6011 1.50951C66.5321 1.32084 66.4631 1.03783 66.187 1.13217C65.911 1.2265 64.324 0.849157 63.565 1.50951C63.4199 1.43193 63.2639 1.40013 63.1085 1.41646C62.9532 1.4328 62.8026 1.49685 62.6679 1.60385C63.841 2.07553 65.083 1.69818 66.2561 1.79252Z" fill="#255851"/>
<path d="M81.2986 3.20757L82.1956 2.92456C83.1617 3.39624 83.9897 2.83022 85.0937 2.83022C84.767 2.59455 84.4076 2.45592 84.0389 2.42341C83.6703 2.39089 83.3008 2.46523 82.9546 2.64155C82.3822 2.33026 81.7489 2.29697 81.1606 2.54722C80.9536 2.64155 80.7466 2.73589 80.7466 2.92456C80.7466 3.11323 81.0226 3.20757 81.2986 3.20757Z" fill="#255851"/>
<path d="M113.385 1.32084C112.902 0.660487 112.143 0.943495 111.522 0.943495C111.936 1.60385 112.557 1.60385 113.385 1.32084Z" fill="#255851"/>
<path d="M7.12099 23.3955V23.2068L3.87787 23.5842C5.11992 23.9615 6.15495 23.3955 7.12099 23.3955Z" fill="#255851"/>
<path d="M68.4641 1.88688H69.0851C69.4992 1.69821 70.3272 2.16989 70.2582 1.50953C70.1892 0.849182 69.5682 1.79254 69.2232 1.50953L68.5331 1.13219C68.1881 0.943518 67.7051 0.849182 67.5671 1.22653C67.4291 1.60387 67.9121 1.88688 68.4641 1.88688Z" fill="#255851"/>
<path d="M116.766 1.22653C117.326 1.30459 117.893 1.20783 118.422 0.943517H116.766C115.912 0.867516 115.055 0.930853 114.213 1.13219C115.058 1.30385 115.915 1.33552 116.766 1.22653Z" fill="#255851"/>
<path d="M5.32692 16.509C5.87894 16.509 6.43096 16.6033 6.77597 15.6599L5.32692 16.509Z" fill="#255851"/>
<path d="M72.8113 1.79254C73.2943 1.79254 74.0533 2.07555 73.9843 1.41519C73.9153 0.754842 73.2253 1.13219 72.8113 1.22652H72.4663C72.1213 1.13219 71.7072 0.943514 71.3622 1.41519C71.795 1.77997 72.3108 1.91429 72.8113 1.79254Z" fill="#255851"/>
<path d="M66.7391 2.54722C66.2721 2.33009 65.7699 2.29739 65.29 2.45288C65.4939 2.67422 65.7434 2.80241 66.0034 2.81933C66.2634 2.83626 66.5208 2.74107 66.7391 2.54722Z" fill="#255851"/>
<path d="M95.3061 1.50954C95.8581 1.88689 96.4101 1.98122 96.6171 1.22653C96.3937 1.07375 96.1494 0.986443 95.8999 0.970199C95.6504 0.953954 95.4011 1.00913 95.1681 1.1322C94.9611 1.22653 95.0991 1.41521 95.3061 1.50954Z" fill="#255851"/>
<path d="M75.5024 1.79252V2.35854C75.3644 2.54721 74.8123 2.16987 74.9504 2.64155C75.0884 3.11323 76.1924 2.83022 76.8824 2.92455C77.5724 3.01889 77.9175 3.20756 77.9175 2.64155L77.1584 2.07553C77.5034 1.88686 77.7105 1.60385 77.3654 1.41518C77.0204 1.2265 76.3994 1.60385 75.8474 1.50951C75.2954 1.41518 74.9504 1.03783 74.8124 1.41518C74.6743 1.79252 75.1574 1.79252 75.5024 1.79252Z" fill="#255851"/>
<path d="M64.255 2.45287C63.8624 2.21992 63.4219 2.18647 63.0129 2.35854C63.1927 2.53188 63.4044 2.63265 63.6241 2.64933C63.8437 2.66601 64.0623 2.59793 64.255 2.45287Z" fill="#255851"/>
<path d="M4.77453 18.3957L3.39448 18.6787L1.0484 19.1504C0.634385 19.2447 0.22037 19.2447 0.0133629 19.7164C0.476775 19.8451 0.957816 19.7793 1.39341 19.5277C2.07986 19.5046 2.75767 19.3129 3.39448 18.9617C3.97746 19.0196 4.56313 18.9235 5.11954 18.6787C5.56542 18.6924 6.00948 18.5965 6.43059 18.3957C6.36159 18.207 6.29258 18.1127 6.15458 18.1127L4.77453 18.3957Z" fill="#255851"/>
<defs>
<linearGradient id="paint0_linear" x1="-1.98561e-07" y1="40" x2="150" y2="-2.25334e-06" gradientUnits="userSpaceOnUse">
<stop stop-color="#008976"/>
<stop offset="1" stop-color="#008E6C"/>
</linearGradient>
</defs>
</svg>
