<svg width="80" height="80" viewBox="0 0 80 80" fill="none" xmlns="http://www.w3.org/2000/svg">
<path d="M16.83 46C15.5175 45.3662 14.0525 45 12.5 45C6.98625 45 2.5 49.4863 2.5 55C2.5 60.5137 6.98625 65 12.5 65C15.96 65 19.0138 63.2325 20.81 60.5537L30.2563 65.2825C30.0938 65.9963 30 66.7375 30 67.5C30 73.0137 34.4862 77.5 40 77.5C45.5137 77.5 50 73.0137 50 67.5C50 65.4275 49.3662 63.5012 48.2812 61.9025L61.555 48.0238C63.22 49.2587 65.2725 50 67.5 50C73.0137 50 77.5 45.5137 77.5 40C77.5 34.4862 73.0137 30 67.5 30C65.1925 30 63.0725 30.7925 61.3775 32.11L47.89 18.6225C49.2075 16.9275 50 14.8075 50 12.5C50 6.98625 45.5137 2.5 40 2.5C34.4862 2.5 30 6.98625 30 12.5C30 13.26 30.0925 13.9987 30.255 14.7113L21.39 17.9412C19.7275 14.715 16.3713 12.5 12.5 12.5C6.98625 12.5 2.5 16.9862 2.5 22.5C2.5 28.0138 6.98625 32.5 12.5 32.5C13.9225 32.5 15.2737 32.1975 16.5 31.6587L21.1012 39.4025L16.83 46ZM12.5 62.5C8.36375 62.5 5 59.1362 5 55C5 50.8638 8.36375 47.5 12.5 47.5C16.6362 47.5 20 50.8638 20 55C20 59.1362 16.6362 62.5 12.5 62.5ZM21.9237 58.3138C22.29 57.275 22.5 56.1625 22.5 55C22.5 51.9338 21.11 49.1888 18.9313 47.3537L22.5262 41.8013L33.365 60.04C32.4525 60.8525 31.6888 61.825 31.1225 62.9187L21.9237 58.3138ZM40 22.5C42.3075 22.5 44.4275 21.7075 46.1225 20.39L59.6112 33.8787C58.8025 34.9188 58.1975 36.12 57.8487 37.4275L49.9963 36.3475C49.995 36.315 50 36.2825 50 36.25C50 30.7362 45.5137 26.25 40 26.25C36.54 26.25 33.485 28.0175 31.69 30.6962L30.1987 29.9513L35.6712 21.5C36.9825 22.1338 38.4475 22.5 40 22.5ZM41.25 57.5863V46.1625C45.3125 45.6525 48.6175 42.7 49.6525 38.8225L57.505 39.9025C57.505 39.935 57.5 39.9675 57.5 40C57.5 42.3875 58.3425 44.5788 59.7437 46.3L46.6187 60.0238C45.1475 58.72 43.2962 57.8438 41.25 57.5863ZM40 28.75C44.1362 28.75 47.5 32.1138 47.5 36.25C47.5 40.3862 44.1362 43.75 40 43.75C35.8638 43.75 32.5 40.3862 32.5 36.25C32.5 32.1138 35.8638 28.75 40 28.75ZM30.5763 32.9363C30.21 33.975 30 35.0875 30 36.25C30 41.34 33.825 45.545 38.75 46.1637V57.5875C37.565 57.7362 36.4462 58.0913 35.4275 58.6175L24.0425 39.4587L28.8313 32.0637L30.5763 32.9363ZM40 75C35.8638 75 32.5 71.6363 32.5 67.5C32.5 63.3638 35.8638 60 40 60C44.1362 60 47.5 63.3638 47.5 67.5C47.5 71.6363 44.1362 75 40 75ZM67.5 32.5C71.6363 32.5 75 35.8638 75 40C75 44.1362 71.6363 47.5 67.5 47.5C63.3638 47.5 60 44.1362 60 40C60 35.8638 63.3638 32.5 67.5 32.5ZM40 5C44.1362 5 47.5 8.36375 47.5 12.5C47.5 16.6362 44.1362 20 40 20C35.8638 20 32.5 16.6362 32.5 12.5C32.5 8.36375 35.8638 5 40 5ZM31.11 17.0588C31.7213 18.245 32.5575 19.2938 33.5687 20.1463L27.9487 28.8263L21.9237 25.8137C22.29 24.775 22.5 23.6625 22.5 22.5C22.5 21.74 22.4075 21.0013 22.245 20.2888L31.11 17.0588ZM5 22.5C5 18.3638 8.36375 15 12.5 15C16.6362 15 20 18.3638 20 22.5C20 26.6362 16.6362 30 12.5 30C8.36375 30 5 26.6362 5 22.5ZM18.6437 30.3737C19.4813 29.7188 20.2163 28.9388 20.81 28.0538L26.5812 30.9387L22.6175 37.06L18.6437 30.3737Z" fill="#255851"/>
</svg>
