<svg width="80" height="80" viewBox="0 0 80 80" fill="none" xmlns="http://www.w3.org/2000/svg">
<g clip-path="url(#clip0)">
<path d="M68.7557 0H65.3162C63.8042 0 63.8042 2.34409 65.3162 2.34409H68.7557C72.3078 2.34409 75.1977 5.22357 75.1977 8.76283V35.8874C75.1977 39.4268 72.3079 42.3063 68.7557 42.3063H64.8547C64.5973 42.3063 64.3471 42.391 64.1425 42.5474L56.9843 48.0229V43.4783C56.9843 42.831 56.4597 42.3063 55.8123 42.3063H41.5477C40.3796 42.3063 39.2569 41.9979 38.2668 41.4118V28.2549C38.2668 25.7904 37.0116 23.6131 35.1055 22.3249V8.76283C35.1055 5.22357 37.9955 2.34409 41.5477 2.34409H57.9713C59.4831 2.34409 59.4831 0 57.9713 0H41.5477C36.7029 0 32.7614 3.93104 32.7614 8.76283V21.2948C32.2248 21.1667 31.6657 21.0968 31.0903 21.0968H9.63466C5.67768 21.0968 2.45831 24.3079 2.45831 28.2549V30.7857C2.45831 32.2975 4.8024 32.2975 4.8024 30.7857V28.2549C4.8024 25.6004 6.97006 23.4409 9.63466 23.4409H31.0904C33.755 23.4409 35.9228 25.6004 35.9228 28.2549V41.8784C35.9088 41.9818 35.9094 42.0861 35.9228 42.1888V49.6448C35.9228 49.7922 35.9139 49.9389 35.9006 50.0849H33.4836C30.8202 50.0849 28.5999 52.0072 28.1395 54.5337C28.0329 54.5738 27.9306 54.6299 27.8357 54.7031L22.5936 58.7507V55.6309C22.5936 54.9836 22.069 54.4588 21.4215 54.4588H9.63466C6.97006 54.4588 4.8024 52.2993 4.8024 49.6448V37.818C4.8024 36.3062 2.45831 36.3062 2.45831 37.818V49.645C2.45831 53.592 5.67768 56.8031 9.63466 56.8031H20.2496V61.1365C20.2496 62.0766 21.3912 62.6406 22.138 62.0643L28.0506 57.4991V70.6846C28.0506 73.6733 30.488 76.1046 33.4837 76.1046H40.6762V78.8395C40.6762 79.7793 41.8177 80.344 42.5644 79.7673L47.3082 76.1046H48.7097C51.7054 76.1046 54.1428 73.6731 54.1428 70.6846V68.6037C54.1428 67.0919 51.7987 67.0919 51.7987 68.6037V70.6846C51.7987 72.3808 50.4131 73.7605 48.7097 73.7605H46.9083C46.6491 73.7605 46.3972 73.8465 46.1921 74.0048L43.0201 76.4537V74.9324C43.0201 74.2851 42.4955 73.7603 41.8481 73.7603H33.4836C31.7804 73.7603 30.3945 72.3805 30.3945 70.6844V55.5051C30.3945 53.8089 31.7802 52.4291 33.4836 52.4291H48.7097C50.4129 52.4291 51.7987 53.809 51.7987 55.5051V61.2589C51.7987 62.7706 54.1428 62.7706 54.1428 61.2589V55.5052C54.1428 52.5165 51.7054 50.0852 48.7097 50.0852H38.2535C38.2624 49.9388 38.2669 44.019 38.2669 44.019C39.3004 44.4345 40.4083 44.6505 41.5479 44.6505H54.6404V50.3951C54.6404 51.3329 55.7771 51.8975 56.5246 51.326L65.2518 44.6505H68.7559C73.6005 44.6505 77.542 40.7195 77.542 35.8875V8.76283C77.5418 3.93104 73.6003 0 68.7557 0V0Z" fill="#255851"/>
<path d="M58.0803 8.65932C56.5921 8.27942 55.0756 9.45522 55.0756 10.9929C55.0756 12.673 54.4633 14.2922 53.3524 15.5513L50.1232 19.2054C49.9141 18.8846 49.5528 18.6722 49.1413 18.6722H42.8373C42.1898 18.6722 41.6652 19.1969 41.6652 19.8442V34.0283C41.6652 34.6756 42.1898 35.2003 42.8373 35.2003H49.1413C49.615 35.2003 50.0219 34.9189 50.2068 34.5148C51.4831 35.2946 52.962 35.7162 54.4668 35.7162H65.6078C67.3102 35.7162 68.7146 34.239 68.6348 32.5409C68.5993 31.7889 68.638 21.6917 68.638 21.4674C68.638 19.7966 67.2786 18.437 65.6112 18.437L59.8177 18.4196L60.0576 17.8516C61.1538 15.2554 60.9733 12.245 59.5753 9.79824C59.249 9.22659 58.7179 8.82232 58.0803 8.65932C58.7179 8.82232 57.4424 8.49649 58.0803 8.65932C58.7179 8.82232 56.5922 8.27942 58.0803 8.65932ZM47.9693 32.8563H44.0093V21.0163H47.9693V32.8563ZM65.6078 20.7809C65.9863 20.7809 66.2941 21.0888 66.2941 21.4673C66.2941 21.6903 66.2918 22.2955 66.2886 23.1161C66.2713 27.6468 66.2597 31.9377 66.2932 32.6509C66.3054 32.9083 66.1802 33.0799 66.1046 33.1593C65.9736 33.2965 65.7972 33.372 65.6078 33.372H54.4668C53.1388 33.372 51.8391 32.9117 50.8067 32.0761L50.3134 31.6767V22.5299L55.1095 17.1027C56.5993 15.4144 57.4197 13.2445 57.4197 10.9928C57.4197 10.9265 57.5102 10.9093 57.5402 10.9609C58.5782 12.7773 58.7119 15.0121 57.8982 16.9394L56.9732 19.1302C56.8206 19.4917 56.859 19.9053 57.0751 20.2326C57.2916 20.5598 57.6572 20.757 58.0493 20.7583L65.6078 20.7809Z" fill="#255851"/>
<path d="M12.4942 40.7087C11.8467 40.7087 11.3221 41.2334 11.3221 41.8807C11.3221 42.528 11.8467 43.0527 12.4942 43.0527H15.949L15.3036 46.9563C15.198 47.5948 15.6302 48.1982 16.2688 48.3038C16.3336 48.3146 16.3978 48.3198 16.4613 48.3198C17.0245 48.3198 17.5213 47.9127 17.6163 47.3387L18.3248 43.0529H21.1523L20.5069 46.9564C20.4012 47.595 20.8335 48.1983 21.472 48.304C21.5369 48.3148 21.6011 48.3199 21.6645 48.3199C22.2277 48.3199 22.7245 47.9128 22.8196 47.3388L23.5281 43.0531H28.2308C28.8782 43.0531 29.4029 42.5283 29.4029 41.881C29.4029 41.2337 28.8782 40.709 28.2308 40.709H23.9157L24.3884 37.8498H28.2308C28.8782 37.8498 29.4029 37.325 29.4029 36.6778C29.4029 36.0305 28.8782 35.5057 28.2308 35.5057H24.7759L25.4213 31.6022C25.527 30.9637 25.0947 30.3603 24.4562 30.2546C23.8169 30.1487 23.2143 30.5813 23.1087 31.2198L22.4001 35.5056H19.5727L20.2181 31.602C20.3237 30.9635 19.8915 30.3601 19.2529 30.2545C18.6129 30.1485 18.0112 30.5811 17.9054 31.2196L17.1969 35.5054H12.4942C11.8467 35.5054 11.3221 36.0302 11.3221 36.6774C11.3221 37.3247 11.8467 37.8495 12.4942 37.8495H16.8093L16.3366 40.7087H12.4942ZM19.1853 37.8495H22.0127L21.54 40.7087H18.7126L19.1853 37.8495Z" fill="#255851"/>
<path d="M41.0825 58.4765C40.1361 57.6973 38.877 57.3899 37.614 57.697C35.9955 58.09 34.3623 59.6031 34.3623 62.097C34.3623 63.6493 34.9288 64.9967 36.0941 66.2162C37.046 67.2125 38.4196 68.1598 40.5477 69.2881C40.7195 69.3792 40.9081 69.4247 41.0967 69.4247C41.2853 69.4247 41.474 69.3792 41.6457 69.2881C45.3584 67.3198 47.831 65.3438 47.831 62.097C47.831 59.5895 46.1398 58.0919 44.4636 57.7201C43.2044 57.4407 41.9836 57.7373 41.0825 58.4765ZM45.4867 62.097C45.4867 63.8482 44.3252 65.1433 41.0966 66.9205C37.868 65.1431 36.7062 63.8481 36.7062 62.097C36.7062 60.794 37.4607 60.1464 38.1669 59.9748C38.2971 59.9433 38.4365 59.9255 38.5798 59.9255C39.111 59.9255 39.695 60.1708 40.055 60.8689C40.2602 61.2661 40.6749 61.5124 41.1198 61.5032C41.5666 61.4943 41.9697 61.2321 42.1586 60.827C42.5379 60.0141 43.3355 59.8711 43.9556 60.0088C44.696 60.1727 45.4867 60.8076 45.4867 62.097Z" fill="#255851"/>
</g>
<defs>
<clipPath id="clip0">
<rect width="80" height="80" fill="white"/>
</clipPath>
</defs>
</svg>
