<?xml version="1.0" standalone="no"?>
<!DOCTYPE svg PUBLIC "-//W3C//DTD SVG 1.1//EN" "http://www.w3.org/Graphics/SVG/1.1/DTD/svg11.dtd" >
<svg xmlns="http://www.w3.org/2000/svg" xmlns:xlink="http://www.w3.org/1999/xlink" version="1.1">
<metadata></metadata>
<defs>
<font id="prosto_oneregular" horiz-adv-x="1331" >
<font-face units-per-em="2048" ascent="1638" descent="-410" />
<missing-glyph horiz-adv-x="716" />
<glyph horiz-adv-x="0" />
<glyph unicode="&#xd;" horiz-adv-x="716" />
<glyph unicode=" "  horiz-adv-x="716" />
<glyph unicode="&#x09;" horiz-adv-x="716" />
<glyph unicode="&#xa0;" horiz-adv-x="716" />
<glyph unicode="!" horiz-adv-x="573" d="M123 1434h328l-29 -1024h-268zM133 133q0 61 42 107.5t112 46.5q68 0 110.5 -46.5t42.5 -107.5t-42 -107t-111 -46q-70 0 -112 46t-42 107z" />
<glyph unicode="&#x22;" horiz-adv-x="757" d="M41 1434h287l-62 -471h-164zM430 1434h287l-62 -471h-163z" />
<glyph unicode="#" horiz-adv-x="1638" d="M41 348l18 154h256l45 389h-256l19 153h256l45 390h287l-45 -390h391l47 390h285l-46 -390h254l-18 -153h-254l-45 -389h254l-18 -154h-254l-41 -348h-287l41 348h-391l-41 -348h-287l41 348h-256zM602 502h391l45 389h-391z" />
<glyph unicode="$" horiz-adv-x="1536" d="M61 195l103 122q117 -100 272.5 -152t341.5 -52q207 0 293 56t86 148q0 84 -67.5 139.5t-229.5 106.5l-389 123q-193 61 -291 156.5t-98 242.5q0 74 32.5 141.5t102.5 121t178.5 87t259.5 38.5v165h226v-176q156 -23 293 -80t229 -143l-103 -123q-117 100 -262 152.5 t-331 52.5q-154 0 -231 -52t-77 -122q0 -47 14.5 -81t48.5 -61.5t89 -52t137 -51.5l387 -123q186 -59 293 -155.5t107 -243.5q0 -82 -32 -154.5t-102.5 -128t-184.5 -90.5t-275 -43v-168h-226v170q-182 16 -338.5 76.5t-255.5 153.5z" />
<glyph unicode="%" horiz-adv-x="1730" d="M61 1137q0 84 28 147.5t75 105.5t112.5 63.5t143.5 21.5q76 0 142.5 -21.5t113.5 -63.5t74.5 -105.5t27.5 -147.5t-27.5 -147.5t-74.5 -105.5t-113.5 -63.5t-142.5 -21.5q-78 0 -143.5 21.5t-112.5 63.5t-75 105.5t-28 147.5zM205 0l1024 1434h297l-1024 -1434h-297z M287 1137q0 -123 40 -174.5t93 -51.5t93 51.5t40 174.5t-40 174t-93 51t-93 -51t-40 -174zM952 297q0 84 28 147.5t75 105.5t112.5 63.5t143.5 21.5q76 0 142.5 -21.5t113.5 -63.5t74.5 -105.5t27.5 -147.5t-27.5 -147.5t-74.5 -105.5t-114 -63.5t-142 -21.5 q-78 0 -143.5 21.5t-112.5 63.5t-75 105.5t-28 147.5zM1178 297q0 -123 40 -174t93 -51t93 51t40 174t-40 174t-93 51t-93 -51t-40 -174z" />
<glyph unicode="&#x26;" horiz-adv-x="1546" d="M61 328q0 80 29 142t78 111.5t113.5 87.5t138.5 68q-49 39 -96.5 80t-82 88t-56 101t-21.5 120q0 74 30.5 137.5t94 110.5t160 74t227.5 27t227 -27t159.5 -74t94.5 -110.5t31 -137.5t-29 -135t-77 -113.5t-110.5 -94.5t-131.5 -76l348 -287q31 61 51.5 138t20.5 159h204 q0 -123 -30.5 -228.5t-92.5 -191.5l185 -154l-144 -184l-204 164q-100 -78 -235.5 -121t-297.5 -43q-150 0 -259.5 32t-182 84t-107.5 117.5t-35 135.5zM379 328q0 -43 20.5 -83t60.5 -72t96 -51.5t130 -19.5q109 0 199 36t159 95l-450 371q-92 -47 -153.5 -118.5 t-61.5 -157.5zM471 1126q0 -78 56.5 -150.5t148.5 -125.5q92 53 148.5 126t56.5 150q0 100 -56.5 157.5t-148.5 57.5t-148.5 -57t-56.5 -158z" />
<glyph unicode="'" horiz-adv-x="368" d="M41 1434h287l-62 -471h-164z" />
<glyph unicode="(" horiz-adv-x="645" d="M102 614q0 262 119 511t342 442l82 -72q-123 -184 -184.5 -394.5t-61.5 -486.5t61.5 -486t184.5 -394l-82 -72q-223 193 -342 441.5t-119 510.5z" />
<glyph unicode=")" horiz-adv-x="645" d="M0 -266q123 184 184.5 394t61.5 486t-61.5 486.5t-184.5 394.5l82 72q223 -193 342 -441.5t119 -511.5q0 -262 -119 -510.5t-342 -441.5z" />
<glyph unicode="*" horiz-adv-x="1024" d="M82 911l235 140l-235 137l92 164l246 -144v267h184v-267l246 144l92 -164l-242 -137l242 -140l-92 -163l-246 143v-266h-184v266l-246 -143z" />
<glyph unicode="+" horiz-adv-x="1105" d="M61 573v185h390v389h204v-389h389v-185h-389v-389h-204v389h-390z" />
<glyph unicode="," horiz-adv-x="522" d="M102 133q0 61 42 107.5t112 46.5q78 0 121 -58.5t43 -136.5q0 -80 -24.5 -138t-63.5 -96t-89 -55.5t-100 -17.5v72q53 0 99.5 35.5t54.5 97.5q-6 -4 -14 -6q-16 -4 -37 -4q-61 0 -102.5 46t-41.5 107z" />
<glyph unicode="-" horiz-adv-x="1105" d="M82 573v185h942v-185h-942z" />
<glyph unicode="." horiz-adv-x="512" d="M102 133q0 61 42 107.5t112 46.5q68 0 111 -46.5t43 -107.5t-42 -107t-112 -46t-112 46t-42 107z" />
<glyph unicode="/" horiz-adv-x="757" d="M0 0l492 1434h266l-492 -1434h-266z" />
<glyph unicode="0" horiz-adv-x="1679" d="M102 717q0 193 54.5 335t153 236t233.5 140.5t297 46.5t297 -46.5t233 -140.5t152.5 -236.5t54.5 -334.5q0 -193 -54.5 -335t-152.5 -236.5t-233.5 -140.5t-296.5 -46q-162 0 -297 46t-233.5 140.5t-153 236.5t-54.5 335zM420 717q0 -166 36 -283t94 -190.5t134 -107.5 t156 -34t155.5 34t134 107.5t94.5 190.5t36 283t-36 282.5t-94.5 190.5t-134 107.5t-155.5 33.5t-156 -33.5t-134 -107.5t-94 -190.5t-36 -282.5z" />
<glyph unicode="1" horiz-adv-x="819" d="M20 1188l349 246h307v-1434h-297v1188h-21l-245 -133z" />
<glyph unicode="2" horiz-adv-x="1413" d="M61 1260q117 100 276 157.5t359 57.5q162 0 281 -31t197.5 -87.5t117.5 -133t39 -168.5t-26.5 -165t-70.5 -132.5t-101.5 -108.5t-118.5 -96l-522 -399h860v-154h-1270v164l737 563q78 53 136.5 130t58.5 177q0 131 -84 209t-254 78q-154 0 -280 -42t-242 -142z" />
<glyph unicode="3" horiz-adv-x="1505" d="M41 195l102 122q117 -109 248 -156.5t285 -47.5q215 0 312 81.5t97 204.5t-77.5 189.5t-239.5 66.5h-420v154h379q297 0 297 266q0 109 -88 177.5t-250 68.5q-154 0 -279.5 -42t-242.5 -142l-92 123q117 100 275.5 157.5t359.5 57.5q158 0 276.5 -29t198.5 -80 t119.5 -120.5t39.5 -149.5q0 -131 -63.5 -216t-202.5 -132q154 -39 241 -130.5t87 -238.5q0 -88 -41 -165t-128 -133t-220 -89t-318 -33q-201 0 -369.5 63.5t-285.5 172.5z" />
<glyph unicode="4" horiz-adv-x="1556" d="M41 328v161l932 945h368v-963h175v-143h-175v-328h-297v328h-1003zM338 471h706v696h-20z" />
<glyph unicode="5" horiz-adv-x="1484" d="M61 195l103 122q117 -109 246 -156.5t276 -47.5q209 0 304 87t95 240q0 154 -93 241t-285 87q-86 0 -183.5 -25.5t-175.5 -87.5h-225v779h1157v-144h-860v-430q37 16 84 31q41 10 97 20.5t126 10.5q346 0 511 -129t165 -353q0 -223 -168 -352t-528 -129q-193 0 -361 63.5 t-285 172.5z" />
<glyph unicode="6" horiz-adv-x="1515" d="M102 522v338q0 293 172 454t504 161q154 0 305.5 -47.5t268.5 -147.5l-92 -123q-57 49 -120 81t-123.5 50.5t-116.5 25.5t-101 7q-176 0 -277.5 -111.5t-101.5 -349.5q43 29 102 51q49 18 122 35t165 17q150 0 266.5 -37t196.5 -102.5t121 -159t41 -203.5 q0 -111 -42 -204t-126 -158.5t-208 -102.5t-290 -37q-332 0 -499 146.5t-167 416.5zM420 502q0 -193 97 -296.5t251 -103.5q76 0 140.5 26t110.5 73t71.5 113.5t25.5 146.5t-25.5 146.5t-69.5 113.5t-103.5 72.5t-129.5 25.5q-92 0 -160.5 -21.5t-115.5 -45.5 q-53 -29 -92 -66v-184z" />
<glyph unicode="7" d="M20 1280v154h1270v-174l-665 -1260h-308l676 1280h-973z" />
<glyph unicode="8" horiz-adv-x="1536" d="M82 399q0 70 23.5 130.5t68.5 108.5t106.5 81t139.5 49q-131 31 -204 110.5t-73 196.5q0 88 36 162t112 126t193.5 82t283.5 30t283.5 -30t193.5 -82t112 -126t36 -162q0 -117 -73 -196.5t-204 -110.5q76 -16 138.5 -49t107.5 -81t68.5 -108.5t23.5 -130.5 q0 -88 -42 -167.5t-128 -140t-215 -96.5t-301 -36t-301 36t-215 96.5t-128 140t-42 167.5zM399 399q0 -131 91.5 -214t277.5 -83t277.5 83t91.5 214q0 123 -92.5 205t-276.5 82t-276.5 -82t-92.5 -205zM461 1075q0 -109 76.5 -177.5t230.5 -68.5t230.5 69t76.5 177 q0 117 -76.5 186.5t-230.5 69.5t-230.5 -69.5t-76.5 -186.5z" />
<glyph unicode="9" horiz-adv-x="1515" d="M82 973q0 111 42 204t126 158.5t208 102.5t290 37q332 0 498.5 -146.5t166.5 -417.5v-338q0 -293 -172 -453.5t-504 -160.5q-154 0 -305 47t-268 148l92 122q57 -49 119.5 -80.5t123 -50t116 -25.5t102.5 -7q176 0 277.5 111.5t101.5 348.5q-45 -29 -103 -51 q-51 -20 -122.5 -35.5t-163.5 -15.5q-150 0 -266.5 37t-196.5 102.5t-121 158.5t-41 204zM399 973q0 -80 26 -146.5t70 -113.5t103 -73t129 -26q92 0 160.5 20.5t116.5 45.5q53 29 92 68v184q0 193 -97.5 296t-250.5 103q-78 0 -141.5 -25.5t-109.5 -72.5t-72 -113.5 t-26 -146.5z" />
<glyph unicode=":" horiz-adv-x="512" d="M102 133q0 61 42 107.5t112 46.5q68 0 111 -46.5t43 -107.5t-42 -107t-112 -46t-112 46t-42 107zM102 932q0 61 42 107t112 46q68 0 111 -46t43 -107t-42 -107.5t-112 -46.5t-112 46t-42 108z" />
<glyph unicode=";" horiz-adv-x="522" d="M102 133q0 61 42 107.5t112 46.5q78 0 121 -58.5t43 -136.5q0 -80 -24.5 -138t-63.5 -96t-89 -55.5t-100 -17.5v72q53 0 99.5 35.5t54.5 97.5q-6 -4 -14 -6q-16 -4 -37 -4q-61 0 -102.5 46t-41.5 107zM102 932q0 61 42 107t112 46q68 0 111 -46t43 -107t-42 -107.5 t-112 -46.5t-112 46t-42 108z" />
<glyph unicode="&#x3c;" horiz-adv-x="870" d="M61 430v205l697 450v-256l-461 -297l461 -296v-256z" />
<glyph unicode="=" horiz-adv-x="1146" d="M102 379v184h942v-184h-942zM102 768v184h942v-184h-942z" />
<glyph unicode="&#x3e;" horiz-adv-x="870" d="M113 -20v256l460 296l-460 297v256l696 -450v-205z" />
<glyph unicode="?" d="M20 1239q117 100 270.5 157.5t323.5 57.5q166 0 289 -36t204 -98.5t122 -146t41 -180.5q0 -193 -144.5 -311.5t-398.5 -149.5v-122h-266v276q137 0 233.5 23.5t155.5 64.5t86 97.5t27 121.5q0 66 -25 122t-72 97t-115.5 64.5t-156.5 23.5q-109 0 -237 -41.5t-244 -142.5z M440 133q0 61 42 107.5t112 46.5q68 0 111 -46.5t43 -107.5t-42 -107t-112 -46t-112 46t-42 107z" />
<glyph unicode="@" horiz-adv-x="2109" d="M102 614q0 188 69 346t192.5 273t300 178.5t391.5 63.5t391 -63.5t300 -174.5t192.5 -260.5t68.5 -321.5q0 -131 -38 -228t-105.5 -162.5t-159.5 -98.5t-199 -33h-430q-246 0 -389 114.5t-143 346.5q0 229 143 345t389 116h430v-779q61 0 112.5 20.5t87.5 66t56.5 117 t20.5 175.5q0 150 -50.5 271t-144.5 207t-229 132t-303 46q-170 0 -304.5 -47t-228.5 -136.5t-144 -218.5t-50 -295t50 -295t144 -218t228.5 -136t304.5 -47q72 0 139.5 9.5t118.5 21.5q59 12 110 31l41 -164q-51 -18 -116 -31q-55 -12 -130 -21.5t-163 -9.5 q-215 0 -391.5 63.5t-300 178.5t-192.5 272.5t-69 345.5zM850 594q0 -84 19.5 -144.5t51 -99.5t71.5 -56.5t83 -17.5h144v635h-144q-43 0 -83 -18.5t-71.5 -56t-51 -98t-19.5 -144.5z" />
<glyph unicode="A" horiz-adv-x="1679" d="M20 0l584 1434h471l584 -1434h-295l-135 348h-778l-136 -348h-295zM522 502h635l-307 758h-21z" />
<glyph unicode="B" horiz-adv-x="1638" d="M143 0v1434h697q158 0 273.5 -28t191 -78t112.5 -119.5t37 -153.5q0 -109 -61.5 -189t-184.5 -118q154 -31 241 -120t87 -229q0 -184 -152.5 -291.5t-482.5 -107.5h-758zM440 154h461q154 0 236 61t82 184q0 131 -82 193.5t-236 62.5h-461v-501zM440 809h400 q297 0 297 246q0 109 -75 167t-222 58h-400v-471z" />
<glyph unicode="C" horiz-adv-x="1617" d="M102 717q0 184 58.5 325.5t166 237.5t259 145.5t336.5 49.5q186 0 352 -63.5t282 -172.5l-102 -123q-117 109 -245 157t-267 48q-111 0 -207 -36t-165.5 -109.5t-109.5 -187.5t-40 -271q0 -158 40 -271.5t112.5 -187.5t172 -109.5t218.5 -35.5q139 0 267 48t245 156 l102 -122q-117 -109 -283 -172.5t-352 -63.5q-193 0 -347.5 49t-264 145.5t-169 237.5t-59.5 326z" />
<glyph unicode="D" horiz-adv-x="1720" d="M143 0v1434h676q184 0 335 -46.5t258.5 -136.5t166.5 -224t59 -310t-59 -310.5t-166.5 -224.5t-258 -136t-335.5 -46h-676zM440 154h379q104 0 195.5 31.5t159 100t107.5 175t40 256.5t-40 256t-107.5 175t-158.5 100.5t-196 31.5h-379v-1126z" />
<glyph unicode="E" horiz-adv-x="1454" d="M143 0v1434h1250v-154h-953v-471h748v-154h-748v-501h953v-154h-1250z" />
<glyph unicode="F" horiz-adv-x="1474" d="M143 0v1434h1291v-154h-994v-492h748v-153h-748v-635h-297z" />
<glyph unicode="G" horiz-adv-x="1679" d="M102 717q0 184 55.5 325.5t157 237.5t246 145.5t320.5 49.5q186 0 352 -63.5t283 -172.5l-103 -123q-117 109 -245 157t-267 48q-104 0 -192 -36t-152.5 -109.5t-100.5 -187.5t-36 -271q0 -162 37 -277.5t102.5 -190.5t158.5 -111t204 -36q92 0 158.5 16.5t111.5 39.5 q53 25 88 57v389h-266v133h563v-563q-76 -61 -176 -108q-86 -41 -212 -74t-288 -33q-184 0 -331.5 49t-252 145.5t-160 237.5t-55.5 326z" />
<glyph unicode="H" horiz-adv-x="1720" d="M143 0v1434h297v-656h840v656h297v-1434h-297v625h-840v-625h-297z" />
<glyph unicode="I" horiz-adv-x="583" d="M143 0v1434h297v-1434h-297z" />
<glyph unicode="J" horiz-adv-x="1351" d="M20 123l93 123q92 -70 187 -101.5t212 -31.5q84 0 156.5 25.5t127 83t85 146.5t30.5 216v696h-481v154h778v-850q0 -158 -48 -274.5t-136 -194.5t-213 -117t-279 -39q-74 0 -146.5 12.5t-140 35t-125 52t-100.5 64.5z" />
<glyph unicode="K" horiz-adv-x="1628" d="M143 0v1434h297v-646h338l471 646h328l-512 -707l543 -727h-338l-471 635h-359v-635h-297z" />
<glyph unicode="L" horiz-adv-x="1361" d="M143 0v1434h297v-1280h881v-154h-1178z" />
<glyph unicode="M" horiz-adv-x="2252" d="M143 0v1434h441l532 -1229h21l532 1229h440v-1434h-297v1147h-20l-492 -1147h-348l-491 1147h-21v-1147h-297z" />
<glyph unicode="N" horiz-adv-x="1761" d="M143 0v1434h389l768 -1168h21v1168h297v-1434h-389l-768 1167h-21v-1167h-297z" />
<glyph unicode="O" horiz-adv-x="1843" d="M102 717q0 184 58.5 325.5t166 237.5t259.5 145.5t336 49.5t334.5 -49.5t258 -145.5t167 -237.5t59.5 -325.5t-59.5 -325.5t-167 -238t-258 -145.5t-334.5 -49t-336 49t-259.5 145.5t-166 237.5t-58.5 326zM420 717q0 -158 40 -273.5t107.5 -191.5t158.5 -113t196 -37 q104 0 195 37t158.5 113t107.5 191.5t40 273.5t-40 273.5t-107.5 191t-158.5 112.5t-195 37t-195.5 -37t-159 -112.5t-107.5 -191.5t-40 -273z" />
<glyph unicode="P" horiz-adv-x="1617" d="M143 0v1434h738q154 0 275.5 -34t205.5 -98.5t129 -157.5t45 -212t-45 -212t-129 -157.5t-206 -98.5t-275 -34h-441v-430h-297zM440 584h441q162 0 251 85t89 263t-89.5 263t-250.5 85h-441v-696z" />
<glyph unicode="Q" horiz-adv-x="1843" d="M102 717q0 184 58.5 325.5t166 237.5t259.5 145.5t336 49.5t334.5 -49.5t258 -145.5t167 -237.5t59.5 -325.5q0 -236 -94.5 -399.5t-262.5 -254.5l132 -145l-144 -133l-182 205q-123 -31 -268 -31q-184 0 -336 49t-259.5 145.5t-166 237.5t-58.5 326zM420 717 q0 -158 40 -273.5t107.5 -191.5t158.5 -113t196 -37q80 0 147 21l-117 133l144 133l149 -168q82 74 130 197t48 299q0 158 -40 273.5t-107.5 191t-158.5 112.5t-195 37t-195.5 -37t-159 -112.5t-107.5 -191.5t-40 -273z" />
<glyph unicode="R" horiz-adv-x="1638" d="M143 0v1434h738q154 0 275.5 -34t205.5 -98.5t129 -157.5t45 -212q0 -164 -82 -276.5t-235 -172.5l337 -483h-337l-301 430h-37h-441v-430h-297zM440 584h441q162 0 250 85t88 263t-88.5 263t-249.5 85h-441v-696z" />
<glyph unicode="S" horiz-adv-x="1536" d="M61 195l103 122q117 -100 272.5 -152t341.5 -52q207 0 293 57t86 158q0 78 -67.5 131t-229.5 104l-389 123q-193 61 -291 156.5t-98 242.5q0 76 36 147t111.5 125t193.5 86t284 32q100 0 199.5 -16.5t190.5 -47.5t170 -75t136 -97l-103 -123q-117 100 -262 152.5 t-331 52.5q-154 0 -231 -53.5t-77 -130.5q0 -43 14.5 -75t48.5 -59.5t89 -51t137 -50.5l387 -123q186 -59 293 -155.5t107 -243.5q0 -88 -37 -165t-120 -133t-215 -89t-325 -33q-109 0 -212 16.5t-196.5 47t-172 74.5t-136.5 98z" />
<glyph unicode="T" horiz-adv-x="1443" d="M20 1280v154h1403v-154h-553v-1280h-297v1280h-553z" />
<glyph unicode="U" horiz-adv-x="1761" d="M143 584v850h297v-850q0 -127 32 -218.5t89 -149.5t138.5 -86t181.5 -28t181 28t138 86t89 149.5t32 218.5v850h297v-850q0 -315 -192.5 -470t-544.5 -155q-354 0 -546 154.5t-192 470.5z" />
<glyph unicode="V" horiz-adv-x="1699" d="M20 1434h306l514 -1260h20l514 1260h305l-583 -1434h-492z" />
<glyph unicode="W" horiz-adv-x="2396" d="M41 1434h297l346 -1239h21l319 1136h348l320 -1136h20l346 1239h297l-399 -1434h-440l-308 1096h-20l-307 -1096h-441z" />
<glyph unicode="X" horiz-adv-x="1566" d="M0 0l608 735l-577 699h348l403 -490l406 490h348l-580 -699l611 -735h-348l-437 524l-434 -524h-348z" />
<glyph unicode="Y" horiz-adv-x="1628" d="M0 1434h328l481 -727h10l481 727h328l-665 -1004v-430h-297v430z" />
<glyph unicode="Z" horiz-adv-x="1474" d="M72 0v174l952 1106h-932v154h1290v-174l-952 -1106h973v-154h-1331z" />
<glyph unicode="[" horiz-adv-x="716" d="M143 -317v1863h533v-153h-246v-1557h246v-153h-533z" />
<glyph unicode="\" horiz-adv-x="839" d="M41 1434h266l492 -1434h-267z" />
<glyph unicode="]" horiz-adv-x="716" d="M41 -164h246v1557h-246v153h532v-1863h-532v153z" />
<glyph unicode="^" horiz-adv-x="1044" d="M20 922l390 553h225l389 -553h-256l-246 348l-246 -348h-256z" />
<glyph unicode="_" horiz-adv-x="942" d="M0 0h942v-184h-942v184z" />
<glyph unicode="`" horiz-adv-x="503" d="M41 1475h289l133 -410h-195z" />
<glyph unicode="a" horiz-adv-x="1320" d="M72 338q0 170 132 254t410 84h287q0 147 -76.5 217t-199.5 70q-92 0 -180.5 -28t-157.5 -75l-72 123q45 31 99.5 53.5t111.5 38t113.5 23.5t105.5 8q131 0 231.5 -31t170 -88t105.5 -136t36 -175v-676h-574q-279 0 -410.5 84t-131.5 254zM379 338q0 -195 235 -195h287 v389h-287h-2q-233 0 -233 -194z" />
<glyph unicode="b" horiz-adv-x="1402" d="M143 0v1434h287v-369h256q141 0 257 -37t198 -106.5t126 -168t44 -221.5t-44 -221t-126 -167.5t-198 -106.5t-257 -37h-543zM430 143h256q70 0 128 21.5t100 69t66 121t24 177.5t-24 178t-66 121.5t-100 69t-128 21.5h-256v-779z" />
<glyph unicode="c" horiz-adv-x="1259" d="M92 532q0 137 46 245t128 180.5t197 110.5t254 38q66 0 131 -11.5t125.5 -31t113 -48t91.5 -63.5l-82 -123q-84 63 -171 98.5t-188 35.5q-74 0 -135 -24t-106 -76t-71 -134t-26 -197t26 -196.5t73 -133.5t113.5 -76t146.5 -24q100 0 187 35t171 99l82 -123 q-39 -35 -91 -64t-112.5 -48t-126 -30.5t-131.5 -11.5q-145 0 -265 38t-204 110.5t-130 179t-46 245.5z" />
<glyph unicode="d" horiz-adv-x="1402" d="M92 532q0 123 44 221.5t126 168t197.5 106.5t257.5 37h256v369h287v-1434h-543q-141 0 -257 37t-198 106.5t-126 168t-44 220.5zM399 532q0 -104 23.5 -177.5t65.5 -121t100.5 -69t128.5 -21.5h256v779h-256q-70 0 -128.5 -21.5t-100.5 -69t-65.5 -121t-23.5 -178.5z" />
<glyph unicode="e" horiz-adv-x="1372" d="M92 532q0 137 44 245t123 180.5t187.5 110.5t239.5 38q123 0 231.5 -37t188.5 -107.5t127 -171t47 -227.5v-143h-874q25 -170 118 -244t234 -74q100 0 187 35t171 99l82 -123q-39 -35 -91 -64t-112.5 -48t-126 -30.5t-131.5 -11.5q-145 0 -265 38t-204 110.5t-130 179 t-46 245.5zM399 563h574q0 106 -24.5 184t-64.5 128.5t-92.5 74t-105.5 23.5q-59 0 -110.5 -22.5t-89 -72t-61.5 -127t-26 -188.5z" />
<glyph unicode="f" horiz-adv-x="921" d="M41 881v143h195v20q0 201 124.5 316t356.5 115q78 0 156.5 -20.5t140.5 -51.5l-62 -133q-39 23 -96 42t-119 19q-43 0 -82 -16.5t-68.5 -50t-47 -89t-17.5 -131.5v-20h318v-143h-318v-881h-286v881h-195z" />
<glyph unicode="g" horiz-adv-x="1402" d="M92 553q0 115 44 209t126 161.5t197.5 104.5t257.5 37h543v-1045q0 -96 -37 -174.5t-110 -136t-182.5 -88.5t-254.5 -31q-49 0 -105.5 7.5t-114 22.5t-111.5 39t-99 54l71 123q70 -47 158 -74.5t180 -27.5q154 0 236 69.5t82 216.5v21h-256q-141 0 -257 37t-198 104.5 t-126 161.5t-44 209zM399 553q0 -186 85 -277.5t233 -91.5h256v738h-256q-147 0 -232.5 -91.5t-85.5 -277.5z" />
<glyph unicode="h" horiz-adv-x="1402" d="M143 0v1434h287v-369h266q293 0 433.5 -105.5t140.5 -314.5v-645h-287v645q0 147 -73.5 212t-213.5 65h-266v-922h-287z" />
<glyph unicode="i" horiz-adv-x="593" d="M143 1321q0 61 42 107.5t112 46.5q68 0 111 -46.5t43 -107.5t-42 -107.5t-112 -46.5t-112 46.5t-42 107.5zM154 0v1044h286v-1044h-286z" />
<glyph unicode="j" horiz-adv-x="614" d="M-205 -358l41 133q31 -16 73 -28.5t81 -12.5t72.5 14t58 46t39 82t14.5 124v1044h287v-1044q0 -88 -29 -163t-83 -130t-134 -86t-184 -31q-53 0 -113.5 10.5t-122.5 41.5zM164 1321q0 61 42 107.5t111 46.5q68 0 111 -46.5t43 -107.5t-42 -107.5t-112 -46.5t-111.5 46.5 t-41.5 107.5z" />
<glyph unicode="k" horiz-adv-x="1310" d="M143 0v1434h287v-820h215l318 451h307l-359 -512l379 -553h-327l-318 471h-215v-471h-287z" />
<glyph unicode="l" horiz-adv-x="573" d="M143 0v1434h287v-1434h-287z" />
<glyph unicode="m" horiz-adv-x="1914" d="M143 0v1065h1065q293 0 433.5 -105.5t140.5 -314.5v-645h-287v645q0 147 -73.5 212t-213.5 65h-102v-922h-287v922h-389v-922h-287z" />
<glyph unicode="n" horiz-adv-x="1402" d="M143 0v1065h553q293 0 433.5 -105.5t140.5 -314.5v-645h-287v645q0 147 -73.5 212t-213.5 65h-266v-922h-287z" />
<glyph unicode="o" horiz-adv-x="1433" d="M92 532q0 137 46 245t128 180.5t197 110.5t254 38q137 0 252.5 -38t197.5 -110.5t128 -180t46 -245.5q0 -139 -46 -245.5t-128 -179t-197.5 -110.5t-252.5 -38q-139 0 -254 38t-197 110.5t-128 179t-46 245.5zM399 532q0 -119 26 -202.5t69 -136t100 -77t123 -24.5 t123 24.5t100 77t68.5 136.5t25.5 202q0 119 -25.5 203t-68.5 136.5t-100.5 77t-122.5 24.5q-66 0 -123 -24.5t-100 -77t-69 -136.5t-26 -203z" />
<glyph unicode="p" horiz-adv-x="1402" d="M143 -369v1434h543q141 0 257 -37t198 -106.5t126 -168t44 -221.5t-44 -221t-126 -167.5t-198 -106.5t-257 -37h-256v-369h-287zM430 143h256q70 0 128 21.5t100 69t66 121t24 177.5t-24 178t-66 121.5t-100 69t-128 21.5h-256v-779z" />
<glyph unicode="q" horiz-adv-x="1402" d="M92 532q0 123 44 221.5t126 168t197.5 106.5t257.5 37h543v-1434h-287v369h-256q-141 0 -257 37t-198 106.5t-126 168t-44 220.5zM399 532q0 -104 23.5 -177.5t65.5 -121t100.5 -69t128.5 -21.5h256v779h-256q-70 0 -128.5 -21.5t-100.5 -69t-65.5 -121t-23.5 -178.5z " />
<glyph unicode="r" horiz-adv-x="972" d="M133 0v625q0 209 132 324.5t380 115.5h307v-143h-245q-139 0 -213 -75t-74 -222v-625h-287z" />
<glyph unicode="s" horiz-adv-x="1259" d="M61 113l82 123q86 -53 202 -93.5t269 -40.5q154 0 215.5 41t61.5 103q0 47 -43 85t-152 68l-317 93q-131 39 -214 111.5t-83 195.5q0 66 29.5 122t93 97t162 64.5t237.5 23.5q170 0 308.5 -46t224.5 -108l-82 -123q-84 53 -190.5 93.5t-260.5 40.5q-109 0 -162 -35 t-53 -88q0 -47 42 -86t142 -68l318 -92q147 -43 227 -117t80 -190q0 -74 -30.5 -134.5t-100.5 -103.5t-180.5 -66.5t-272.5 -23.5q-84 0 -164.5 12.5t-153.5 34t-132.5 49t-102.5 58.5z" />
<glyph unicode="t" horiz-adv-x="1034" d="M41 922v143h195v328h286v-328h318v-143h-318v-533q0 -78 17.5 -132t47 -88t68.5 -50.5t82 -16.5q61 0 118.5 19.5t96.5 42.5l62 -133q-61 -31 -140 -51.5t-157 -20.5q-231 0 -356 114.5t-125 315.5v533h-195z" />
<glyph unicode="u" horiz-adv-x="1413" d="M143 420v645h287v-645q0 -147 74 -212t213 -65h266v922h287v-1065h-553q-293 0 -433.5 105.5t-140.5 314.5z" />
<glyph unicode="v" horiz-adv-x="1310" d="M20 1065h287l338 -891h21l338 891h286l-409 -1065h-451z" />
<glyph unicode="w" horiz-adv-x="1925" d="M41 1065h297l235 -870h21l205 768h327l205 -768h21l235 870h297l-287 -1065h-430l-194 737h-21l-194 -737h-430z" />
<glyph unicode="x" horiz-adv-x="1228" d="M0 0l451 539l-441 526h328l276 -332l277 332h328l-441 -526l451 -539h-328l-287 342l-286 -342h-328z" />
<glyph unicode="y" horiz-adv-x="1413" d="M143 461v604h287v-604q0 -147 74 -212t213 -65h266v881h287v-1045q0 -96 -37 -174.5t-109.5 -136t-182.5 -88.5t-255 -31q-49 0 -105.5 7.5t-113.5 22.5t-111.5 39t-99.5 54l82 123q70 -47 156 -74.5t172 -27.5q154 0 235.5 69.5t81.5 216.5v21h-266q-293 0 -433.5 105.5 t-140.5 314.5z" />
<glyph unicode="z" horiz-adv-x="1208" d="M72 0v164l706 758h-686v143h1024v-164l-706 -758h727v-143h-1065z" />
<glyph unicode="{" horiz-adv-x="778" d="M41 543v143q92 0 148.5 56.5t56.5 148.5v297q0 170 121.5 264t369.5 94h21v-153h-21q-92 0 -148.5 -56.5t-56.5 -148.5v-297q0 -70 -23.5 -119t-60 -82t-79.5 -50.5t-82 -25.5q39 -8 82 -25.5t79.5 -50t60 -81.5t23.5 -119v-297q0 -92 56.5 -148.5t148.5 -56.5h21v-153 h-21q-248 0 -369.5 94t-121.5 264v297q0 92 -56.5 148.5t-148.5 56.5z" />
<glyph unicode="|" horiz-adv-x="583" d="M143 -369v1803h297v-1803h-297z" />
<glyph unicode="}" horiz-adv-x="778" d="M20 -164h21q92 0 148.5 56.5t56.5 148.5v297q0 70 23.5 119t60.5 81.5t80 50t82 25.5q-39 8 -82 25.5t-80 50.5t-60.5 82t-23.5 119v297q0 92 -56.5 148.5t-148.5 56.5h-21v153h21q248 0 369.5 -94t121.5 -264v-297q0 -92 56.5 -148.5t148.5 -56.5v-143 q-92 0 -148.5 -56.5t-56.5 -148.5v-297q0 -170 -121.5 -264t-369.5 -94h-21v153z" />
<glyph unicode="~" horiz-adv-x="1034" d="M41 535q4 63 24.5 120.5t57.5 100.5t88 68.5t117 25.5t116 -22.5t92 -49t79.5 -49t80.5 -22.5q70 0 104 40.5t50 102.5l143 -53q-4 -66 -24.5 -123.5t-57.5 -100.5t-88 -67.5t-116 -24.5q-66 0 -116 22.5t-92 49.5t-80 49.5t-81 22.5q-70 0 -103.5 -41t-50.5 -103z" />
<glyph unicode="&#xa2;" horiz-adv-x="1259" d="M92 532q0 119 34 215.5t97.5 167t152.5 115.5t197 64v176h226v-168q111 -12 212 -51t167 -99l-82 -123q-84 63 -171 98.5t-188 35.5q-74 0 -135 -24t-106 -76t-71 -134t-26 -197t26 -196.5t73 -133.5t113.5 -76t146.5 -24q100 0 187 35t171 99l82 -123 q-68 -61 -175.5 -100.5t-223.5 -49.5v-168h-226v178q-223 37 -352 179.5t-129 379.5z" />
<glyph unicode="&#xa3;" horiz-adv-x="1413" d="M82 0v154h51q61 0 102 46t41 138v307h-194v154h194v153q0 119 42 215.5t118 165t181.5 105.5t232.5 37q154 0 271.5 -41t209.5 -103l-82 -133q-78 53 -167 88t-212 35q-57 0 -110 -18.5t-95 -61.5t-67 -113.5t-25 -175.5v-153h502v-154h-502v-307q0 -49 -12 -84 t-27.5 -56.5t-27.5 -32.5t-14 -11h860v-154h-1270z" />
<glyph unicode="&#xa5;" horiz-adv-x="1628" d="M0 1434h328l481 -727h10l481 727h328l-543 -820h205v-143h-301l-26 -41v-82h327v-143h-327v-205h-297v205h-328v143h328v82l-29 41h-299v143h205z" />
<glyph unicode="&#xa8;" horiz-adv-x="942" d="M82 1341q0 61 42 107.5t112 46.5q68 0 110.5 -46.5t42.5 -107.5t-42 -107t-111 -46q-70 0 -112 46t-42 107zM553 1341q0 61 42 107.5t112 46.5q68 0 110.5 -46.5t42.5 -107.5t-42 -107t-111 -46q-70 0 -112 46t-42 107z" />
<glyph unicode="&#xa9;" horiz-adv-x="1904" d="M102 717q0 172 63.5 315.5t177.5 246.5t269.5 159.5t339.5 56.5t340 -56.5t269.5 -159.5t177 -246.5t63.5 -315.5t-63.5 -315.5t-177 -247t-269 -159.5t-340.5 -56q-184 0 -339.5 56t-269.5 159.5t-177.5 247t-63.5 315.5zM328 717q0 -141 48 -255t133 -194t198.5 -123 t244.5 -43t245 43t198 123t133 193.5t49 255.5q0 141 -49 254.5t-133 193.5t-198 123t-245 43t-244.5 -43t-198.5 -123t-133 -193.5t-48 -254.5zM492 717q0 106 34.5 190t97 142.5t148.5 88t191 29.5q123 0 215 -37.5t153 -85.5l-71 -102q-61 47 -123 74.5t-156 27.5 q-49 0 -93 -18t-78 -57t-53.5 -101.5t-19.5 -150.5q0 -176 75 -252t189 -76q94 0 156 27.5t123 75.5l72 -103q-61 -47 -153.5 -85t-215.5 -38q-111 0 -202 30t-155.5 88t-99 141t-34.5 192z" />
<glyph unicode="&#xab;" horiz-adv-x="1218" d="M20 532l543 533l154 -164l-379 -369l379 -368l-154 -164zM532 532l472 461l153 -164l-307 -297l307 -296l-153 -164z" />
<glyph unicode="&#xad;" horiz-adv-x="1105" d="M82 573v185h942v-185h-942z" />
<glyph unicode="&#xae;" horiz-adv-x="1904" d="M102 717q0 172 63.5 315.5t177.5 246.5t269.5 159.5t339.5 56.5t340 -56.5t269.5 -159.5t177 -246.5t63.5 -315.5t-63.5 -315.5t-177 -247t-269 -159.5t-340.5 -56q-184 0 -339.5 56t-269.5 159.5t-177.5 247t-63.5 315.5zM328 717q0 -141 48 -255t133 -194t198.5 -123 t244.5 -43t245 43t198 123t133 193.5t49 255.5q0 141 -49 254.5t-133 193.5t-198 123t-245 43t-244.5 -43t-198.5 -123t-133 -193.5t-48 -254.5zM594 287v860h369q193 0 301 -80t108 -227q0 -96 -47 -164t-133 -105l201 -284h-256l-172 245h-2h-144v-245h-225zM819 655h144 q61 0 112 42.5t51 142.5t-51 142t-112 42h-144v-369z" />
<glyph unicode="&#xb4;" horiz-adv-x="534" d="M82 1188l123 307h289l-218 -307h-194z" />
<glyph unicode="&#xb8;" horiz-adv-x="645" d="M90 -430l41 102q23 -12 45 -20q20 -8 46 -14.5t54 -6.5q70 0 96.5 20.5t26.5 51.5t-26.5 51.5t-96.5 20.5h-92v225h164v-102q100 -8 157.5 -55.5t57.5 -139.5t-64.5 -143.5t-181.5 -51.5q-51 0 -92 9.5t-71 21.5q-37 12 -64 31z" />
<glyph unicode="&#xbb;" horiz-adv-x="1228" d="M61 236l308 296l-308 297l154 164l471 -461l-471 -460zM502 164l379 368l-379 369l153 164l543 -533l-543 -532z" />
<glyph unicode="&#x2c6;" horiz-adv-x="903" d="M82 1188l256 328h225l258 -328h-215l-155 184l-154 -184h-215z" />
<glyph unicode="&#x2da;" horiz-adv-x="655" d="M82 1413q0 49 19.5 91t53 72t79 46t94.5 16t94 -16t79 -46t53 -72t19 -91t-19 -91t-53 -71.5t-79 -46t-94 -16.5t-94.5 16.5t-79 46t-53 71.5t-19.5 91zM236 1413q0 -47 26.5 -74.5t65.5 -27.5t65.5 27.5t26.5 74.5t-26.5 75t-65.5 28t-65.5 -28t-26.5 -75z" />
<glyph unicode="&#x2dc;" horiz-adv-x="839" d="M82 1221q0 53 13.5 103t39 88t64.5 61.5t88 23.5q45 0 79.5 -19.5t62.5 -42t52.5 -42t50.5 -19.5q39 0 56.5 37t25.5 76l144 -21q0 -53 -13.5 -103t-39 -89t-64.5 -61.5t-88 -22.5q-47 0 -81 19.5t-61.5 42t-52 42t-51.5 19.5q-39 0 -56.5 -37t-25.5 -76z" />
<glyph unicode="&#x401;" horiz-adv-x="1454" d="M143 0v1434h1250v-154h-953v-471h748v-154h-748v-501h953v-154h-1250zM379 1731q0 61 42 107t111 46q68 0 111 -46t43 -107t-42 -107.5t-112 -46.5t-111.5 46t-41.5 108zM850 1731q0 61 42 107t112 46q68 0 110.5 -46t42.5 -107t-42 -107.5t-111 -46.5q-70 0 -112 46 t-42 108z" />
<glyph unicode="&#x402;" horiz-adv-x="1792" d="M20 1280v154h994v-154h-389v-338h389q180 0 308 -28.5t210 -84t120 -138.5t38 -189v-154q0 -201 -98.5 -290t-291.5 -89q-57 0 -104 11q-25 4 -49 10v133h82q70 0 117 51t47 174v154q0 145 -86 215.5t-293 70.5h-389v-788h-297v1280h-308z" />
<glyph unicode="&#x403;" horiz-adv-x="1351" d="M143 0v1434h1188v-154h-891v-1280h-297zM614 1556l123 308h289l-217 -308h-195z" />
<glyph unicode="&#x404;" horiz-adv-x="1617" d="M102 717q0 184 58.5 325.5t166 237.5t259 145.5t336.5 49.5q186 0 352 -63.5t282 -172.5l-102 -123q-117 109 -245 157t-267 48q-104 0 -194.5 -30.5t-159 -95.5t-112.5 -163t-54 -233h774v-154h-774q8 -139 52 -239.5t114.5 -165t166 -96t208.5 -31.5q139 0 267 48 t245 156l102 -122q-117 -109 -283 -172.5t-352 -63.5q-193 0 -347.5 49t-264 145.5t-169 237.5t-59.5 326z" />
<glyph unicode="&#x405;" horiz-adv-x="1536" d="M61 195l103 122q117 -100 272.5 -152t341.5 -52q207 0 293 57t86 158q0 78 -67.5 131t-229.5 104l-389 123q-193 61 -291 156.5t-98 242.5q0 76 36 147t111.5 125t193.5 86t284 32q100 0 199.5 -16.5t190.5 -47.5t170 -75t136 -97l-103 -123q-117 100 -262 152.5 t-331 52.5q-154 0 -231 -53.5t-77 -130.5q0 -43 14.5 -75t48.5 -59.5t89 -51t137 -50.5l387 -123q186 -59 293 -155.5t107 -243.5q0 -88 -37 -165t-120 -133t-215 -89t-325 -33q-109 0 -212 16.5t-196.5 47t-172 74.5t-136.5 98z" />
<glyph unicode="&#x406;" horiz-adv-x="583" d="M143 0v1434h297v-1434h-297z" />
<glyph unicode="&#x407;" horiz-adv-x="614" d="M-61 1731q0 61 42 107t111 46q68 0 111 -46t43 -107t-42 -107.5t-112 -46.5t-111.5 46t-41.5 108zM164 0v1434h297v-1434h-297zM369 1731q0 61 42 107t111 46q68 0 111 -46t43 -107t-42 -107.5t-112 -46.5t-111.5 46t-41.5 108z" />
<glyph unicode="&#x408;" horiz-adv-x="1351" d="M20 123l93 123q92 -70 187 -101.5t212 -31.5q84 0 156.5 25.5t127 83t85 146.5t30.5 216v696h-481v154h778v-850q0 -158 -48 -274.5t-136 -194.5t-213 -117t-279 -39q-74 0 -146.5 12.5t-140 35t-125 52t-100.5 64.5z" />
<glyph unicode="&#x409;" horiz-adv-x="2713" d="M41 -10v133h61q61 0 108.5 51t55.5 174l72 1086h1198v-533h461q315 0 475 -122t160 -328q0 -207 -160 -329t-475 -122h-758v1280h-625l-61 -932q-14 -201 -111.5 -290t-267.5 -89q-53 0 -94 11q-23 4 -39 10zM1536 154h461q147 0 232 74.5t85 222.5q0 147 -85 222 t-232 75h-461v-594z" />
<glyph unicode="&#x40a;" horiz-adv-x="2713" d="M143 0v1434h297v-594h799v594h297v-574h461q158 0 276.5 -30.5t198.5 -88t120 -136.5t40 -175t-40 -175t-120 -136.5t-199 -88t-276 -30.5h-758v686h-799v-686h-297zM1536 154h461q147 0 232 72.5t85 203.5t-85 204t-232 73h-461v-553z" />
<glyph unicode="&#x40b;" horiz-adv-x="1812" d="M20 1280v154h994v-154h-389v-338h389q180 0 308 -28.5t210 -84t120 -138.5t38 -189v-502h-297v502q0 145 -86 215.5t-293 70.5h-389v-788h-297v1280h-308z" />
<glyph unicode="&#x40c;" horiz-adv-x="1628" d="M143 0v1434h297v-646h338l471 646h328l-512 -707l543 -727h-338l-471 635h-359v-635h-297zM676 1516l123 307h288l-217 -307h-194z" />
<glyph unicode="&#x40e;" horiz-adv-x="1628" d="M0 1434h338l481 -840h21l450 840h318l-768 -1434h-318l226 420h-164zM420 1843h235q0 -92 47.5 -133t116.5 -41q70 0 117 41t47 133h236q0 -154 -92.5 -246t-307.5 -92t-307 92.5t-92 245.5z" />
<glyph unicode="&#x40f;" horiz-adv-x="1720" d="M143 0v1434h297v-1280h840v1280h297v-1434h-1434zM707 0h307l-41 -328h-225z" />
<glyph unicode="&#x410;" horiz-adv-x="1679" d="M20 0l584 1434h471l584 -1434h-295l-135 348h-778l-136 -348h-295zM522 502h635l-307 758h-21z" />
<glyph unicode="&#x411;" horiz-adv-x="1607" d="M143 0v1434h1229v-154h-932v-420h461q158 0 276.5 -30.5t198.5 -88t120 -136.5t40 -175t-40 -175t-120 -136.5t-198.5 -88t-276.5 -30.5h-758zM440 154h461q147 0 232.5 72.5t85.5 203.5t-85 204t-233 73h-461v-553z" />
<glyph unicode="&#x412;" horiz-adv-x="1638" d="M143 0v1434h697q158 0 273.5 -28t191 -78t112.5 -119.5t37 -153.5q0 -109 -61.5 -189t-184.5 -118q154 -31 241 -120t87 -229q0 -184 -152.5 -291.5t-482.5 -107.5h-758zM440 154h461q154 0 236 61t82 184q0 131 -82 193.5t-236 62.5h-461v-501zM440 809h400 q297 0 297 246q0 109 -75 167t-222 58h-400v-471z" />
<glyph unicode="&#x413;" horiz-adv-x="1351" d="M143 0v1434h1188v-154h-891v-1280h-297z" />
<glyph unicode="&#x414;" horiz-adv-x="1781" d="M20 154h103q61 0 113.5 57t60.5 158l82 1065h1147v-1280h174v-482h-246l-41 328h-1106l-41 -328h-246v482zM440 154h789v1126h-574l-71 -911q-4 -53 -26.5 -94.5t-49.5 -67.5q-31 -33 -68 -53z" />
<glyph unicode="&#x415;" horiz-adv-x="1454" d="M143 0v1434h1250v-154h-953v-471h748v-154h-748v-501h953v-154h-1250z" />
<glyph unicode="&#x416;" horiz-adv-x="2344" d="M20 0l441 727l-410 707h328l369 -646h276v646h297v-646h276l369 646h328l-410 -707l440 -727h-337l-379 635h-287v-635h-297v635h-287l-379 -635h-338z" />
<glyph unicode="&#x417;" horiz-adv-x="1525" d="M41 195l102 122q117 -109 248 -156.5t285 -47.5q119 0 203 21.5t136 60t76.5 91t24.5 113.5q0 123 -77.5 189.5t-239.5 66.5h-430v154h389q297 0 297 266q0 109 -88 177.5t-250 68.5q-147 0 -275.5 -42t-244.5 -142l-93 123q117 100 279 157.5t354 57.5q158 0 277 -29 t198.5 -80t119.5 -120.5t40 -149.5q0 -131 -63.5 -216t-202.5 -132q154 -39 241 -130.5t87 -238.5q0 -88 -42 -165t-131.5 -133t-228.5 -89t-336 -33q-201 0 -369.5 63.5t-285.5 172.5z" />
<glyph unicode="&#x418;" horiz-adv-x="1761" d="M143 0v1434h297v-1168h21l768 1168h389v-1434h-297v1167h-21l-768 -1167h-389z" />
<glyph unicode="&#x419;" horiz-adv-x="1761" d="M143 0v1434h297v-1168h21l768 1168h389v-1434h-297v1167h-21l-768 -1167h-389zM461 1884h235q0 -92 47.5 -133t116.5 -41q70 0 117 41t47 133h236q0 -154 -92.5 -246t-307.5 -92t-307 92.5t-92 245.5z" />
<glyph unicode="&#x41a;" horiz-adv-x="1628" d="M143 0v1434h297v-646h338l471 646h328l-512 -707l543 -727h-338l-471 635h-359v-635h-297z" />
<glyph unicode="&#x41b;" horiz-adv-x="1699" d="M41 -10v133h61q61 0 108.5 51t55.5 174l72 1086h1218v-1434h-296v1280h-646l-61 -932q-14 -201 -111.5 -290t-267.5 -89q-53 0 -94 11q-23 4 -39 10z" />
<glyph unicode="&#x41c;" horiz-adv-x="2252" d="M143 0v1434h441l532 -1229h21l532 1229h440v-1434h-297v1147h-20l-492 -1147h-348l-491 1147h-21v-1147h-297z" />
<glyph unicode="&#x41d;" horiz-adv-x="1720" d="M143 0v1434h297v-656h840v656h297v-1434h-297v625h-840v-625h-297z" />
<glyph unicode="&#x41e;" horiz-adv-x="1843" d="M102 717q0 184 58.5 325.5t166 237.5t259.5 145.5t336 49.5t334.5 -49.5t258 -145.5t167 -237.5t59.5 -325.5t-59.5 -325.5t-167 -238t-258 -145.5t-334.5 -49t-336 49t-259.5 145.5t-166 237.5t-58.5 326zM420 717q0 -158 40 -273.5t107.5 -191.5t158.5 -113t196 -37 q104 0 195 37t158.5 113t107.5 191.5t40 273.5t-40 273.5t-107.5 191t-158.5 112.5t-195 37t-195.5 -37t-159 -112.5t-107.5 -191.5t-40 -273z" />
<glyph unicode="&#x41f;" horiz-adv-x="1720" d="M143 0v1434h1434v-1434h-297v1280h-840v-1280h-297z" />
<glyph unicode="&#x420;" horiz-adv-x="1617" d="M143 0v1434h738q154 0 275.5 -34t205.5 -98.5t129 -157.5t45 -212t-45 -212t-129 -157.5t-206 -98.5t-275 -34h-441v-430h-297zM440 584h441q162 0 251 85t89 263t-89.5 263t-250.5 85h-441v-696z" />
<glyph unicode="&#x421;" horiz-adv-x="1617" d="M102 717q0 184 58.5 325.5t166 237.5t259 145.5t336.5 49.5q186 0 352 -63.5t282 -172.5l-102 -123q-117 109 -245 157t-267 48q-111 0 -207 -36t-165.5 -109.5t-109.5 -187.5t-40 -271q0 -158 40 -271.5t112.5 -187.5t172 -109.5t218.5 -35.5q139 0 267 48t245 156 l102 -122q-117 -109 -283 -172.5t-352 -63.5q-193 0 -347.5 49t-264 145.5t-169 237.5t-59.5 326z" />
<glyph unicode="&#x422;" horiz-adv-x="1443" d="M20 1280v154h1403v-154h-553v-1280h-297v1280h-553z" />
<glyph unicode="&#x423;" horiz-adv-x="1628" d="M0 1434h338l481 -840h21l450 840h318l-768 -1434h-318l226 420h-164z" />
<glyph unicode="&#x424;" horiz-adv-x="2037" d="M82 717q0 154 51 272.5t146.5 198.5t229.5 122t300 42h61v164h297v-164h62q166 0 300 -42t229 -122t146.5 -199t51.5 -272q0 -154 -51.5 -272.5t-146.5 -198.5t-229 -122t-300 -42h-62v-164h-297v164h-61q-166 0 -300 42t-229.5 122t-146.5 198.5t-51 272.5zM399 717 q0 -131 33 -222.5t88 -148.5t130 -83.5t159 -26.5h61v962h-61q-84 0 -159 -26.5t-130 -84t-88 -148.5t-33 -222zM1167 236h62q84 0 158.5 26.5t130 83.5t88 148.5t32.5 222.5t-32.5 222t-88 148.5t-130 84t-158.5 26.5h-62v-962z" />
<glyph unicode="&#x425;" horiz-adv-x="1566" d="M0 0l608 735l-577 699h348l403 -490l406 490h348l-580 -699l611 -735h-348l-437 524l-434 -524h-348z" />
<glyph unicode="&#x426;" horiz-adv-x="1792" d="M143 0v1434h297v-1280h799v1280h297v-1280h174v-482h-246l-41 328h-1280z" />
<glyph unicode="&#x427;" horiz-adv-x="1607" d="M102 911v523h297v-523q0 -145 86 -215.5t293 -70.5h389v809h297v-1434h-297v471h-389q-180 0 -308 28.5t-210 84t-120 137.5t-38 190z" />
<glyph unicode="&#x428;" horiz-adv-x="2242" d="M143 0v1434h297v-1280h533v1280h297v-1280h532v1280h297v-1434h-1956z" />
<glyph unicode="&#x429;" horiz-adv-x="2355" d="M143 0v1434h297v-1280h533v1280h297v-1280h532v1280h297v-1280h174v-482h-245l-41 328h-1844z" />
<glyph unicode="&#x42a;" horiz-adv-x="1802" d="M20 1260v174h607l-2 -2v-531h460q315 0 475 -122t160 -328q0 -207 -159.5 -329t-475.5 -122h-757v1260h-308zM625 154h460q147 0 232.5 74.5t85.5 222.5q0 147 -85 222t-233 75h-460v-594z" />
<glyph unicode="&#x42b;" horiz-adv-x="2140" d="M143 0v1434h297v-533h420q315 0 475 -122t160 -328q0 -207 -159.5 -329t-475.5 -122h-717zM440 154h420q147 0 232.5 74.5t85.5 222.5q0 147 -85 222t-233 75h-420v-594zM1700 0v1434h297v-1434h-297z" />
<glyph unicode="&#x42c;" horiz-adv-x="1617" d="M143 0v1434h297v-533h461q315 0 475 -122t160 -328q0 -207 -159.5 -329t-475.5 -122h-758zM440 154h461q147 0 232.5 74.5t85.5 222.5q0 147 -85 222t-233 75h-461v-594z" />
<glyph unicode="&#x42d;" horiz-adv-x="1617" d="M41 195l102 122q117 -109 245 -156.5t267 -47.5q113 0 207 31.5t165 96t114 165t53 239.5h-772v154h772q-10 135 -53 233t-111.5 163t-159 95.5t-194.5 30.5q-139 0 -267 -48t-245 -157l-103 123q117 109 283 172.5t352 63.5q184 0 335 -49.5t258.5 -145.5t167 -237.5 t59.5 -325.5t-59.5 -325.5t-169 -238t-264.5 -145.5t-347 -49q-186 0 -352 63.5t-283 172.5z" />
<glyph unicode="&#x42e;" horiz-adv-x="2365" d="M143 0v1434h297v-656h248q10 168 71.5 298t165 219t244 134.5t306.5 45.5q172 0 317 -49.5t249.5 -145.5t163 -237.5t58.5 -325.5t-58.5 -325.5t-163 -238t-249.5 -145.5t-317 -49q-162 0 -299.5 43t-241 128t-166.5 209t-78 286h-250v-625h-297zM1004 717 q0 -158 38.5 -273.5t104 -191.5t150.5 -113t178 -37q92 0 177 37t150.5 113t104.5 191.5t39 273.5t-39 273.5t-104.5 191t-150.5 112.5t-177 37t-177.5 -37t-151 -112.5t-104 -191.5t-38.5 -273z" />
<glyph unicode="&#x42f;" horiz-adv-x="1638" d="M82 0l338 483q-154 59 -236 172t-82 277q0 119 45.5 212t129 157.5t205.5 98.5t276 34h737v-1434h-297v430h-440h-37l-301 -430h-338zM420 932q0 -178 88 -263t250 -85h440v696h-440q-162 0 -250 -85t-88 -263z" />
<glyph unicode="&#x430;" horiz-adv-x="1320" d="M72 338q0 170 132 254t410 84h287q0 147 -76.5 217t-199.5 70q-92 0 -180.5 -28t-157.5 -75l-72 123q45 31 99.5 53.5t111.5 38t113.5 23.5t105.5 8q131 0 231.5 -31t170 -88t105.5 -136t36 -175v-676h-574q-279 0 -410.5 84t-131.5 254zM379 338q0 -195 235 -195h287 v389h-287q-235 1 -235 -194z" />
<glyph unicode="&#x431;" horiz-adv-x="1392" d="M92 512v236q0 322 153.5 485.5t430.5 189.5l532 52v-236l-512 -51q-430 -43 -430 -440h21q61 117 169.5 176t270.5 59q127 0 235.5 -37t188.5 -104.5t125 -161.5t45 -209t-46 -209t-127 -161.5t-193.5 -104.5t-247.5 -37t-248 38t-194 108.5t-127 173t-46 233.5zM399 471 q0 -96 25 -167t68 -118t98 -70.5t117 -23.5q61 0 116.5 23.5t98.5 70.5t67.5 118t24.5 167q0 92 -24.5 160.5t-67.5 115t-98.5 70t-116.5 23.5t-116.5 -23.5t-98.5 -70t-68 -115t-25 -160.5z" />
<glyph unicode="&#x432;" d="M143 0v1065h543q131 0 225.5 -23.5t155.5 -63.5t91 -94.5t30 -115.5q0 -78 -56.5 -133t-179.5 -72q147 -23 222 -93.5t75 -162.5q0 -66 -29.5 -122t-91 -97t-155.5 -64.5t-225 -23.5h-605zM430 143h318q92 0 143 47.5t51 116.5q0 70 -51 117t-143 47h-318v-328zM430 614 h256q92 0 143.5 46.5t51.5 107.5t-51.5 107.5t-143.5 46.5h-256v-308z" />
<glyph unicode="&#x433;" horiz-adv-x="1024" d="M143 0v1065h861v-143h-574v-922h-287z" />
<glyph unicode="&#x434;" horiz-adv-x="1495" d="M20 143h82q70 0 113 48.5t51 156.5l51 717h943v-922h163v-450h-235l-41 307h-850l-41 -307h-236v450zM410 143h563v779h-389l-41 -574q-4 -51 -23.5 -89t-42 -62.5t-43 -38t-24.5 -15.5z" />
<glyph unicode="&#x435;" horiz-adv-x="1372" d="M92 532q0 137 44 245t123 180.5t187.5 110.5t239.5 38q123 0 231.5 -37t188.5 -107.5t127 -171t47 -227.5v-143h-874q25 -170 118 -244t234 -74q100 0 187 35t171 99l82 -123q-39 -35 -91 -64t-112.5 -48t-126 -30.5t-131.5 -11.5q-145 0 -265 38t-204 110.5t-130 179 t-46 245.5zM399 563h574q0 106 -24.5 184t-64.5 128.5t-92.5 74t-105.5 23.5q-59 0 -110.5 -22.5t-89 -72t-61.5 -127t-26 -188.5z" />
<glyph unicode="&#x436;" horiz-adv-x="2007" d="M41 0l379 543l-359 522h308l317 -461h174v461h287v-461h174l317 461h308l-359 -522l379 -543h-328l-317 461h-174v-461h-287v461h-174l-317 -461h-328z" />
<glyph unicode="&#x437;" horiz-adv-x="1228" d="M31 113l82 123q86 -53 188 -93.5t242 -40.5q162 0 224 52.5t62 152.5q0 70 -51 117t-143 47h-359v143h318q92 0 143 48.5t51 125.5q0 78 -54 126.5t-171 48.5q-131 0 -232.5 -40t-187.5 -94l-82 123q86 61 223.5 107.5t299.5 46.5q131 0 227 -24.5t159.5 -66.5 t94.5 -95.5t31 -110.5q0 -201 -256 -246q147 -23 222 -95.5t75 -180.5q0 -70 -32 -129.5t-101.5 -103.5t-178 -69.5t-262.5 -25.5q-170 0 -308 46t-224 108z" />
<glyph unicode="&#x438;" horiz-adv-x="1433" d="M143 0v1065h287v-799h21l471 799h368v-1065h-286v799h-21l-471 -799h-369z" />
<glyph unicode="&#x439;" horiz-adv-x="1433" d="M143 0v1065h287v-799h21l471 799h368v-1065h-286v799h-21l-471 -799h-369zM307 1505h236q0 -78 46 -126t107 -48t107.5 48t46.5 126h235q0 -139 -98 -228t-291 -89t-291 89t-98 228z" />
<glyph unicode="&#x43a;" d="M143 0v1065h287v-461h215l318 461h307l-359 -522l379 -543h-327l-318 461h-215v-461h-287z" />
<glyph unicode="&#x43b;" horiz-adv-x="1392" d="M31 -10v123h61q27 0 49.5 11t40 37.5t28.5 72t15 114.5l41 717h983v-1065h-286v922h-431l-30 -574q-10 -207 -97.5 -293t-240.5 -86q-49 0 -90 11q-23 4 -43 10z" />
<glyph unicode="&#x43c;" horiz-adv-x="1822" d="M143 0v1065h420l338 -881h21l338 881h419v-1065h-286v778h-21l-297 -778h-325l-299 778h-21v-778h-287z" />
<glyph unicode="&#x43d;" horiz-adv-x="1413" d="M143 0v1065h287v-451h553v451h287v-1065h-287v471h-553v-471h-287z" />
<glyph unicode="&#x43e;" horiz-adv-x="1433" d="M92 532q0 137 46 245t128 180.5t197 110.5t254 38q137 0 252.5 -38t197.5 -110.5t128 -180t46 -245.5q0 -139 -46 -245.5t-128 -179t-197.5 -110.5t-252.5 -38q-139 0 -254 38t-197 110.5t-128 179t-46 245.5zM399 532q0 -119 26 -202.5t69 -136t100 -77t123 -24.5 t123 24.5t100 77t68.5 136.5t25.5 202q0 119 -25.5 203t-68.5 136.5t-100.5 77t-122.5 24.5q-66 0 -123 -24.5t-100 -77t-69 -136.5t-26 -203z" />
<glyph unicode="&#x43f;" horiz-adv-x="1413" d="M143 0v1065h1127v-1065h-287v922h-553v-922h-287z" />
<glyph unicode="&#x440;" horiz-adv-x="1402" d="M143 -369v1434h543q141 0 257 -37t198 -106.5t126 -168t44 -221.5t-44 -221t-126 -167.5t-198 -106.5t-257 -37h-256v-369h-287zM430 143h256q70 0 128 21.5t100 69t66 121t24 177.5t-24 178t-66 121.5t-100 69t-128 21.5h-256v-779z" />
<glyph unicode="&#x441;" horiz-adv-x="1269" d="M92 532q0 137 46 245t128 180.5t197 110.5t254 38q66 0 131 -11.5t125.5 -31t113 -48t91.5 -63.5l-82 -123q-84 63 -171 98.5t-188 35.5q-74 0 -135 -24t-106 -76t-71 -134t-26 -197t26 -196.5t73 -133.5t113.5 -76t146.5 -24q100 0 187 35t171 99l82 -123 q-39 -35 -91 -64t-112.5 -48t-126 -30.5t-131.5 -11.5q-145 0 -265 38t-204 110.5t-130 179t-46 245.5z" />
<glyph unicode="&#x442;" horiz-adv-x="1187" d="M20 922v143h1147v-143h-430v-922h-286v922h-431z" />
<glyph unicode="&#x443;" d="M20 1065h287l359 -891h20l338 891h287l-543 -1434h-287l144 369h-174z" />
<glyph unicode="&#x444;" horiz-adv-x="1740" d="M92 532q0 123 44 221.5t124 168t190.5 106.5t245.5 37h31v369h287v-369h30q135 0 246 -37t191 -106.5t124 -168t44 -221.5t-44 -221t-124 -167.5t-190.5 -106.5t-246.5 -37h-30v-369h-287v369h-31q-135 0 -245.5 37t-190.5 106.5t-124 168t-44 220.5zM399 532 q0 -104 23.5 -177.5t63.5 -121t94.5 -69t115.5 -21.5h31v779h-31q-61 0 -115.5 -21.5t-94.5 -69t-63.5 -121t-23.5 -178.5zM1014 143h30q61 0 115.5 21.5t94.5 69t63.5 121t23.5 177.5t-23.5 178t-63.5 121.5t-94 69t-116 21.5h-30v-779z" />
<glyph unicode="&#x445;" horiz-adv-x="1269" d="M20 0l451 539l-440 526h327l277 -332l276 332h328l-440 -526l450 -539h-327l-287 342l-287 -342h-328z" />
<glyph unicode="&#x446;" horiz-adv-x="1474" d="M143 0v1065h287v-922h512v922h287v-922h174v-450h-236l-41 307h-983z" />
<glyph unicode="&#x447;" horiz-adv-x="1341" d="M113 696v369h286v-369q0 -100 57.5 -152t188.5 -52h266v573h287v-1065h-287v348h-266q-141 0 -242.5 24.5t-166 69.5t-94 109.5t-29.5 144.5z" />
<glyph unicode="&#x448;" horiz-adv-x="1884" d="M143 0v1065h287v-922h369v922h286v-922h369v922h287v-1065h-1598z" />
<glyph unicode="&#x449;" horiz-adv-x="1986" d="M143 0v1065h287v-922h369v922h286v-922h369v922h287v-922h174v-450h-236l-41 307h-1495z" />
<glyph unicode="&#x44a;" horiz-adv-x="1474" d="M20 901v164h574v-369h307q262 0 382 -93t120 -255t-120 -255t-382 -93h-594v901h-287zM594 143h307q92 0 143.5 52.5t51.5 152.5t-51.5 152.5t-143.5 52.5h-307v-410z" />
<glyph unicode="&#x44b;" horiz-adv-x="1781" d="M143 0v1065h287v-369h266q262 0 382 -93t120 -255t-120 -255t-382 -93h-553zM430 143h266q92 0 143.5 52.5t51.5 152.5t-51.5 152.5t-143.5 52.5h-266v-410zM1352 0v1065h286v-1065h-286z" />
<glyph unicode="&#x44c;" horiz-adv-x="1310" d="M143 0v1065h287v-369h307q262 0 382 -93t120 -255t-120 -255t-382 -93h-594zM430 143h307q92 0 143.5 52.5t51.5 152.5t-51.5 152.5t-143.5 52.5h-307v-410z" />
<glyph unicode="&#x44d;" horiz-adv-x="1269" d="M72 113l82 123q84 -63 171 -98.5t187 -35.5q150 0 246 86t110 283h-530v143h528q-10 92 -37.5 159t-71.5 109t-101.5 61.5t-123.5 19.5q-100 0 -187 -35t-171 -99l-82 123q39 35 91.5 63.5t112.5 48t125.5 31t131.5 11.5q137 0 253 -38t197.5 -110.5t128 -180 t46.5 -245.5q0 -139 -46.5 -245.5t-131.5 -179t-203.5 -110.5t-264.5 -38q-66 0 -131 11.5t-125.5 30.5t-112.5 48t-91 64z" />
<glyph unicode="&#x44e;" horiz-adv-x="1904" d="M143 0v1065h287v-451h199q12 119 62 210t128 153.5t180.5 95.5t219.5 33q127 0 235.5 -38t188 -110.5t124.5 -180t45 -245.5q0 -139 -45 -245.5t-124.5 -179t-188 -110.5t-235.5 -38q-121 0 -224.5 34t-181.5 98.5t-127 160.5t-59 219h-197v-471h-287zM932 532 q0 -119 24.5 -202.5t64.5 -136t92.5 -77t105.5 -24.5t105 24.5t92 77t64.5 136.5t24.5 202q0 119 -24.5 203t-64.5 136.5t-92 77t-105 24.5t-105.5 -24.5t-92.5 -77t-64.5 -136.5t-24.5 -203z" />
<glyph unicode="&#x44f;" d="M82 0l274 395q-137 37 -200.5 120t-63.5 202q0 162 120 255t382 93h594v-1065h-287v369h-233l-258 -369h-328zM399 717q0 -100 51.5 -152.5t143.5 -52.5h307v410h-307q-92 0 -143.5 -52.5t-51.5 -152.5z" />
<glyph unicode="&#x451;" horiz-adv-x="1372" d="M92 532q0 137 44 245t123 180.5t187.5 110.5t239.5 38q123 0 231.5 -37t188.5 -107.5t127 -171t47 -227.5v-143h-874q25 -170 118 -244t234 -74q100 0 187 35t171 99l82 -123q-39 -35 -91 -64t-112.5 -48t-126 -30.5t-131.5 -11.5q-145 0 -265 38t-204 110.5t-130 179 t-46 245.5zM297 1341q0 61 42 107.5t112 46.5q68 0 110.5 -46.5t42.5 -107.5t-42 -107t-111 -46q-70 0 -112 46t-42 107zM399 563h574q0 106 -24.5 184t-64.5 128.5t-92.5 74t-105.5 23.5q-59 0 -110.5 -22.5t-89 -72t-61.5 -127t-26 -188.5zM768 1341q0 61 42 107.5 t112 46.5q68 0 110.5 -46.5t42.5 -107.5t-42 -107t-111 -46q-70 0 -112 46t-42 107z" />
<glyph unicode="&#x452;" horiz-adv-x="1443" d="M41 1126v144h184v164h287v-164h328v-144h-328v-163h266q293 0 433.5 -105.5t140.5 -314.5v-195q0 -207 -90.5 -293t-257.5 -86q-61 0 -109 11q-25 4 -45 10v123h82q31 0 55.5 11t42 37.5t26.5 72t9 114.5v195q0 147 -73.5 211.5t-213.5 64.5h-266v-819h-287v1126h-184z " />
<glyph unicode="&#x453;" horiz-adv-x="1024" d="M143 0v1065h861v-143h-574v-922h-287zM461 1188l123 307h288l-217 -307h-194z" />
<glyph unicode="&#x454;" horiz-adv-x="1259" d="M92 532q0 137 46 245t128 180.5t197 110.5t254 38q66 0 131 -11.5t125.5 -31t113 -48t91.5 -63.5l-82 -123q-84 63 -171 98.5t-188 35.5q-66 0 -123 -19.5t-101 -61.5t-72.5 -108.5t-37.5 -159.5h529v-143h-531q14 -197 109.5 -283t247.5 -86q100 0 187 35t171 99 l82 -123q-39 -35 -91 -64t-112.5 -48t-126 -30.5t-131.5 -11.5q-145 0 -265 38t-204 110.5t-130 179t-46 245.5z" />
<glyph unicode="&#x455;" horiz-adv-x="1259" d="M61 113l82 123q86 -53 202 -93.5t269 -40.5q154 0 215.5 41t61.5 103q0 47 -43 85t-152 68l-317 93q-131 39 -214 111.5t-83 195.5q0 66 29.5 122t93 97t162 64.5t237.5 23.5q170 0 308.5 -46t224.5 -108l-82 -123q-84 53 -190.5 93.5t-260.5 40.5q-109 0 -162 -35 t-53 -88q0 -47 42 -86t142 -68l318 -92q147 -43 227 -117t80 -190q0 -74 -30.5 -134.5t-100.5 -103.5t-180.5 -66.5t-272.5 -23.5q-84 0 -164.5 12.5t-153.5 34t-132.5 49t-102.5 58.5z" />
<glyph unicode="&#x456;" horiz-adv-x="573" d="M133 1321q0 61 42 107.5t112 46.5q68 0 110.5 -46.5t42.5 -107.5t-42 -107.5t-111 -46.5q-70 0 -112 46.5t-42 107.5zM143 0v1044h287v-1044h-287z" />
<glyph unicode="&#x457;" horiz-adv-x="614" d="M-61 1321q0 61 42 107.5t111 46.5q68 0 111 -46.5t43 -107.5t-42 -107.5t-112 -46.5t-111.5 46.5t-41.5 107.5zM164 0v1044h287v-1044h-287zM369 1321q0 61 42 107.5t111 46.5q68 0 111 -46.5t43 -107.5t-42 -107.5t-112 -46.5t-111.5 46.5t-41.5 107.5z" />
<glyph unicode="&#x458;" horiz-adv-x="614" d="M-205 -358l41 133q31 -16 73 -28.5t81 -12.5t72.5 14t58 46t39 82t14.5 124v1044h287v-1044q0 -88 -29 -163t-83 -130t-134 -86t-184 -31q-53 0 -113.5 10.5t-122.5 41.5zM164 1321q0 61 42 107.5t111 46.5q68 0 111 -46.5t43 -107.5t-42 -107.5t-112 -46.5t-111.5 46.5 t-41.5 107.5z" />
<glyph unicode="&#x459;" horiz-adv-x="2109" d="M31 -10v123h61q27 0 49.5 11t40 37.5t28.5 72t15 114.5l41 717h963v-369h307q262 0 382 -93t120 -255t-120 -255t-382 -93h-594v922h-410l-30 -574q-10 -207 -97.5 -293t-240.5 -86q-49 0 -90 11q-23 4 -43 10zM1229 143h307q92 0 143.5 52.5t51.5 152.5t-51.5 152.5 t-143.5 52.5h-307v-410z" />
<glyph unicode="&#x45a;" horiz-adv-x="2109" d="M143 0v1065h287v-430h512v430h287v-410h307q131 0 225 -23.5t155.5 -66.5t91.5 -103.5t30 -133.5q0 -74 -30 -134.5t-91.5 -103.5t-155.5 -66.5t-225 -23.5h-594v492h-512v-492h-287zM1229 143h307q92 0 143.5 49.5t51.5 135.5t-51.5 135t-143.5 49h-307v-369z" />
<glyph unicode="&#x45b;" horiz-adv-x="1474" d="M41 1126v144h184v164h287v-164h328v-144h-328v-163h266q293 0 433.5 -105.5t140.5 -314.5v-543h-287v543q0 147 -73.5 211.5t-213.5 64.5h-266v-819h-287v1126h-184z" />
<glyph unicode="&#x45c;" d="M143 0v1065h287v-461h215l318 461h307l-359 -522l379 -543h-327l-318 461h-215v-461h-287zM563 1147l123 307h289l-217 -307h-195z" />
<glyph unicode="&#x45e;" d="M20 1065h287l359 -891h20l338 891h287l-543 -1434h-287l144 369h-174zM276 1464h236q0 -78 46 -126t108 -48q61 0 107 48t46 126h236q0 -139 -98 -228t-291 -89t-291.5 89t-98.5 228z" />
<glyph unicode="&#x45f;" horiz-adv-x="1413" d="M143 0v1065h287v-922h553v922h287v-1065h-420l-41 -307h-205l-41 307h-420z" />
<glyph unicode="&#x490;" horiz-adv-x="1351" d="M143 0v1434h922l41 245h225v-399h-891v-1280h-297z" />
<glyph unicode="&#x491;" horiz-adv-x="1024" d="M143 0v1065h605l40 235h216v-378h-574v-922h-287z" />
<glyph unicode="&#x2000;" horiz-adv-x="942" />
<glyph unicode="&#x2001;" horiz-adv-x="1884" />
<glyph unicode="&#x2002;" horiz-adv-x="942" />
<glyph unicode="&#x2003;" horiz-adv-x="1884" />
<glyph unicode="&#x2004;" horiz-adv-x="628" />
<glyph unicode="&#x2005;" horiz-adv-x="471" />
<glyph unicode="&#x2006;" horiz-adv-x="314" />
<glyph unicode="&#x2007;" horiz-adv-x="314" />
<glyph unicode="&#x2008;" horiz-adv-x="235" />
<glyph unicode="&#x2009;" horiz-adv-x="376" />
<glyph unicode="&#x200a;" horiz-adv-x="104" />
<glyph unicode="&#x2010;" horiz-adv-x="1105" d="M82 573v185h942v-185h-942z" />
<glyph unicode="&#x2011;" horiz-adv-x="1105" d="M82 573v185h942v-185h-942z" />
<glyph unicode="&#x2012;" horiz-adv-x="1105" d="M82 573v185h942v-185h-942z" />
<glyph unicode="&#x2013;" horiz-adv-x="1290" d="M41 573v185h1208v-185h-1208z" />
<glyph unicode="&#x2014;" horiz-adv-x="1781" d="M41 573v185h1700v-185h-1700z" />
<glyph unicode="&#x2018;" horiz-adv-x="522" d="M102 1147q0 80 25 138t63.5 96t89 55.5t99.5 17.5v-72q-53 0 -99.5 -35.5t-54.5 -97.5q6 2 15 4q6 2 15 4.5t21 2.5q61 0 102.5 -46.5t41.5 -107.5t-42 -107.5t-112 -46.5q-78 0 -121 58.5t-43 136.5z" />
<glyph unicode="&#x2019;" horiz-adv-x="522" d="M102 1300q0 61 42 107.5t112 46.5q78 0 121 -58t43 -136q0 -80 -24.5 -138.5t-63.5 -96.5t-89 -55.5t-100 -17.5v72q53 0 99.5 36t54.5 97q-6 -4 -14 -6q-16 -4 -37 -4q-61 0 -102.5 46t-41.5 107z" />
<glyph unicode="&#x201a;" horiz-adv-x="522" d="M102 133q0 61 42 107.5t112 46.5q78 0 121 -58.5t43 -136.5q0 -80 -24.5 -138t-63.5 -96t-89 -55.5t-100 -17.5v72q53 0 99.5 35.5t54.5 97.5q-6 -4 -14 -6q-16 -4 -37 -4q-61 0 -102.5 46t-41.5 107z" />
<glyph unicode="&#x201c;" horiz-adv-x="931" d="M102 1147q0 80 25 138t63.5 96t89 55.5t99.5 17.5v-72q-53 0 -99.5 -35.5t-54.5 -97.5q6 2 15 4q6 2 15 4.5t21 2.5q61 0 102.5 -46.5t41.5 -107.5t-42 -107.5t-112 -46.5q-78 0 -121 58.5t-43 136.5zM512 1147q0 80 24.5 138t63.5 96t89 55.5t99 17.5v-72 q-53 0 -99 -35.5t-54 -97.5q6 2 14 4q6 2 15.5 4.5t21.5 2.5q61 0 102 -46.5t41 -107.5t-42 -107.5t-111 -46.5q-78 0 -121 58.5t-43 136.5z" />
<glyph unicode="&#x201d;" horiz-adv-x="931" d="M102 1300q0 61 42 107.5t112 46.5q78 0 121 -58t43 -136q0 -80 -24.5 -138.5t-63.5 -96.5t-89 -55.5t-100 -17.5v72q53 0 99.5 36t54.5 97q-6 -4 -14 -6q-16 -4 -37 -4q-61 0 -102.5 46t-41.5 107zM512 1300q0 61 42 107.5t112 46.5q78 0 120.5 -58t42.5 -136 q0 -80 -24.5 -138.5t-63.5 -96.5t-89 -55.5t-99 -17.5v72q53 0 99 36t55 97q-6 -4 -15 -6q-16 -4 -37 -4q-61 0 -102 46t-41 107z" />
<glyph unicode="&#x201e;" horiz-adv-x="931" d="M102 133q0 61 42 107.5t112 46.5q78 0 121 -58.5t43 -136.5q0 -80 -24.5 -138t-63.5 -96t-89 -55.5t-100 -17.5v72q53 0 99.5 35.5t54.5 97.5q-6 -4 -14 -6q-16 -4 -37 -4q-61 0 -102.5 46t-41.5 107zM512 133q0 61 42 107.5t112 46.5q78 0 120.5 -58.5t42.5 -136.5 q0 -80 -24.5 -138t-63.5 -96t-89 -55.5t-99 -17.5v72q53 0 99 35.5t55 97.5q-6 -4 -15 -6q-16 -4 -37 -4q-61 0 -102 46t-41 107z" />
<glyph unicode="&#x2026;" d="M102 133q0 61 42 107.5t112 46.5q68 0 111 -46.5t43 -107.5t-42 -107t-112 -46t-112 46t-42 107zM512 133q0 61 42 107.5t112 46.5q68 0 110.5 -46.5t42.5 -107.5t-42 -107t-111 -46q-70 0 -112 46t-42 107zM922 133q0 61 42 107.5t111 46.5q68 0 111 -46.5t43 -107.5 t-42 -107t-112 -46t-111.5 46t-41.5 107z" />
<glyph unicode="&#x202f;" horiz-adv-x="376" />
<glyph unicode="&#x2039;" horiz-adv-x="798" d="M61 532l564 533l153 -164l-389 -369l389 -368l-153 -164z" />
<glyph unicode="&#x203a;" horiz-adv-x="798" d="M61 164l390 368l-390 369l154 164l563 -533l-563 -532z" />
<glyph unicode="&#x205f;" horiz-adv-x="471" />
<glyph unicode="&#x20ac;" horiz-adv-x="1720" d="M20 492l21 143h166q-2 20 -2 39.5v42.5v42t2 40h-166l20 143h170q33 129 102.5 228.5t172 167t233.5 102.5t285 35q186 0 352 -63.5t283 -172.5l-103 -123q-117 109 -244.5 157t-267.5 48q-178 0 -312 -92t-185 -287h641l-21 -143h-643q-2 -20 -2 -40v-42v-42.5t2 -39.5 h623l-21 -143h-579q51 -197 189 -288t329 -91q139 0 267 48t245 156l102 -122q-117 -109 -282.5 -172.5t-352.5 -63.5q-324 0 -535.5 135t-277.5 398h-211z" />
<glyph unicode="&#x2122;" horiz-adv-x="2201" d="M41 1311v123h840v-123h-308v-717h-225v717h-307zM942 594v840h328l246 -697h10l246 697h327v-840h-225v614h-10l-215 -614h-256l-215 614h-11v-614h-225z" />
<glyph unicode="&#x25fc;" horiz-adv-x="1064" d="M0 0v1065h1065v-1065h-1065z" />
</font>
</defs>
</svg>
